<svg xmlns="http://www.w3.org/2000/svg" viewBox="0 0 30 30" preserveAspectRatio="xMinYMid"><path fill="#353535" d="M15 2c3.6 0 6.7 1.3 9.3 3.8C25.5 7 26.4 8.4 27 10c.6 1.6 1 3.3 1 5 0 1.8-.3 3.4-.9 5-.6 1.6-1.6 3-2.8 4.1-1.3 1.3-2.7 2.2-4.3 2.9-1.6.7-3.3 1-5 1s-3.4-.3-4.9-1c-1.6-.7-3-1.6-4.2-2.9C4.6 23 3.6 21.5 3 19.9c-.7-1.6-1-3.2-1-4.9 0-1.7.3-3.4 1-5s1.6-3 2.9-4.3C8.3 3.3 11.4 2 15 2zm0 2.3c-3 0-5.5 1-7.5 3.1-1 1-1.8 2.2-2.4 3.5-.5 1.3-.8 2.7-.8 4.1 0 1.4.3 2.7.8 4 .6 1.3 1.4 2.5 2.4 3.5s2.2 1.8 3.5 2.3c1.3.5 2.6.8 4 .8s2.7-.3 4.1-.8c1.3-.5 2.5-1.3 3.5-2.3 2-2 3-4.5 3-7.5 0-1.4-.3-2.8-.8-4.1-.5-1.3-1.3-2.5-2.3-3.4-2-2.1-4.5-3.2-7.5-3.2zm-.1 8.5l-1.7.9c-.2-.4-.4-.7-.7-.8-.3-.2-.5-.2-.8-.2-1.2 0-1.7.8-1.7 2.3 0 .7.1 1.3.4 1.7.3.4.7.6 1.3.6.8 0 1.3-.4 1.6-1.1l1.6.8c-.7 1.3-2 2.1-3.4 2-1.2 0-2.1-.4-2.8-1.1-.7-.7-1.1-1.7-1.1-3 0-1.2.4-2.2 1.1-2.9s1.6-1.1 2.7-1.1c1.6.1 2.8.7 3.5 1.9zm7.5 0l-1.7.9c-.2-.4-.4-.7-.7-.8-.3-.2-.5-.2-.8-.2-1.2 0-1.7.8-1.7 2.3 0 .7.1 1.3.4 1.7.3.4.7.6 1.3.6.8 0 1.3-.4 1.6-1.1l1.6.8c-.3.6-.8 1.1-1.4 1.5-.6.4-1.3.5-2 .5-1.2 0-2.1-.4-2.8-1.1-.7-.7-1.1-1.7-1.1-3 0-1.2.4-2.2 1.1-2.9.7-.7 1.6-1.1 2.7-1.1 1.6.1 2.8.7 3.5 1.9z"/></svg>
