<svg xmlns="http://www.w3.org/2000/svg" xmlns:xlink="http://www.w3.org/1999/xlink" width="30" height="30" viewBox="0 0 30 30">
    <defs>
        <path id="a" d="M12.977 0c3.636 0 6.732 1.27 9.286 3.807a12.505 12.505 0 0 1 2.785 4.19A13.23 13.23 0 0 1 26 13c0 1.78-.314 3.447-.94 5.003a11.926 11.926 0 0 1-2.775 4.12 13.364 13.364 0 0 1-4.317 2.879c-1.61.665-3.273.998-4.991.998-1.718 0-3.362-.329-4.933-.987a13.064 13.064 0 0 1-4.225-2.855 12.951 12.951 0 0 1-2.844-4.213A12.749 12.749 0 0 1 0 13c0-1.718.329-3.37.987-4.956a13.032 13.032 0 0 1 2.867-4.26C6.33 1.261 9.37 0 12.977 0zm.046 2.344c-2.971 0-5.47 1.038-7.498 3.111A11.18 11.18 0 0 0 3.17 8.95 10.246 10.246 0 0 0 2.345 13c0 1.393.274 2.736.824 4.027a10.761 10.761 0 0 0 2.356 3.46 10.701 10.701 0 0 0 3.459 2.32c1.284.535 2.63.802 4.04.802 1.392 0 2.742-.27 4.05-.813a11.226 11.226 0 0 0 3.54-2.344c2.028-1.981 3.041-4.465 3.041-7.452 0-1.44-.263-2.801-.79-4.086a10.394 10.394 0 0 0-2.297-3.436c-2.09-2.089-4.604-3.134-7.545-3.134zm-.162 8.497l-1.741.906c-.186-.387-.415-.658-.685-.813-.271-.154-.523-.232-.755-.232-1.16 0-1.74.766-1.74 2.298 0 .696.146 1.253.44 1.671.294.418.727.627 1.3.627.758 0 1.293-.371 1.603-1.114l1.601.812a3.823 3.823 0 0 1-3.413 2.043c-1.16 0-2.097-.356-2.808-1.068C5.95 15.26 5.594 14.27 5.594 13c0-1.238.36-2.22 1.08-2.948.72-.728 1.629-1.091 2.728-1.091 1.61 0 2.762.627 3.459 1.88zm7.498 0l-1.718.906c-.186-.387-.414-.658-.685-.813-.271-.154-.53-.232-.778-.232-1.16 0-1.74.766-1.74 2.298 0 .696.146 1.253.44 1.671.294.418.728.627 1.3.627.759 0 1.292-.371 1.602-1.114l1.625.812a3.991 3.991 0 0 1-1.44 1.498 3.751 3.751 0 0 1-1.972.545c-1.176 0-2.117-.356-2.82-1.068-.705-.711-1.057-1.702-1.057-2.971 0-1.238.36-2.22 1.08-2.948.72-.728 1.628-1.091 2.727-1.091 1.61 0 2.755.627 3.436 1.88z"/>
    </defs>
    <g fill="none" fill-rule="evenodd" transform="translate(2 2)">
        <mask id="b" fill="#fff">
            <use xlink:href="#a"/>
        </mask>
        <use fill="#353535" xlink:href="#a"/>
        <g fill="#0077C8" mask="url(#b)">
            <path d="M-110-113h250v250h-250z"/>
        </g>
    </g>
</svg>
