<svg width="119px" height="109px" viewBox="0 0 119 109" version="1.1" xmlns="http://www.w3.org/2000/svg" xmlns:xlink="http://www.w3.org/1999/xlink">
    <g id="Dekstop-1440-px" stroke="none" stroke-width="1" fill="none" fill-rule="evenodd" fill-opacity="0.9">
        <g id="EP014-4-Thema-pagina" transform="translate(-120.000000, -664.000000)" fill="#0077C8" fill-rule="nonzero">
            <path d="M193,719.272002 L193.31034,719 C194.256875,730.867517 200.3205,736.801275 211.501214,736.801275 C212.823945,736.801275 213.908038,736.867517 214.753496,737 L231,737 C235.418278,737 239,740.581722 239,745 L239,765 C239,769.418278 235.418278,773 231,773 L201,773 C196.581722,773 193,769.418278 193,765 L193,747.62455 C190.864856,741.515157 186.38018,737.97364 179.545972,736.999999 L128,737 C123.581722,737 120,733.418278 120,729 L120,672 C120,667.581722 123.581722,664 128,664 L185,664 C189.418278,664 193,667.581722 193,672 L193,719.272002 Z" id="Combined-Shape" transform="translate(179.500000, 718.500000) scale(-1, 1) translate(-179.500000, -718.500000) "></path>
        </g>
    </g>
</svg>
