<svg version="1.1" id="Слой_1" xmlns="http://www.w3.org/2000/svg" x="0px" y="0px"
	 viewBox="0 0 30 30" style="enable-background:new 0 0 30 30;" xml:space="preserve">
<path fill="#0077C8" d="M26.9,3.6C26.7,3.2,26.4,3,26,3H4C3.6,3,3.3,3.2,3.1,3.6C2.9,3.9,3,4.3,3.2,4.6L12,16.4V25
	c0,1.1,0.9,2,2,2c0.4,0,0.9-0.1,1.2-0.4l2-1.5c0.5-0.4,0.8-1,0.8-1.6v-7.1l8.8-11.8C27,4.3,27.1,3.9,26.9,3.6z M8.4,5.2l3.9,5.2
	c0.1,0.1,0.1,0.2,0.1,0.3V12c0,0.2-0.1,0.4-0.3,0.5s-0.4,0-0.6-0.2L6.6,5.8c-0.1-0.2-0.1-0.4,0-0.5C6.7,5.1,6.8,5,7,5h1
	C8.2,5,8.3,5.1,8.4,5.2z"/>
</svg>
