<svg xmlns="http://www.w3.org/2000/svg" xmlns:xlink="http://www.w3.org/1999/xlink" width="30" height="30" viewBox="0 0 30 30">
    <defs>
        <path id="a" d="M23.555 8.729a1.505 1.505 0 0 0-1.406-.98h-6.087a.5.5 0 0 1-.472-.334l-2.185-6.193a1.5 1.5 0 0 0-2.81 0l-.005.016-2.18 6.177a.5.5 0 0 1-.471.334H1.85A1.5 1.5 0 0 0 .887 10.4l5.184 4.3a.5.5 0 0 1 .155.543l-2.178 6.531a1.5 1.5 0 0 0 2.31 1.684l5.346-3.92a.5.5 0 0 1 .591 0l5.344 3.919a1.5 1.5 0 0 0 2.312-1.683l-2.178-6.535a.5.5 0 0 1 .155-.543l5.194-4.306a1.5 1.5 0 0 0 .433-1.661z"/>
    </defs>
    <g fill="none" fill-rule="evenodd" transform="translate(3 3)">
        <mask id="b" fill="#fff">
            <use xlink:href="#a"/>
        </mask>
        <g fill="#0077C8" mask="url(#b)">
            <path d="M-111-114h250v250h-250z"/>
        </g>
    </g>
</svg>
