<svg xmlns="http://www.w3.org/2000/svg" viewBox="0 0 30 30" width="30" height="30"><path fill="#ffffff" d="M23.7 13.5c.7 0 1.3.6 1.3 1.4v1.5c0 .7-.6 1.3-1.3 1.4-5.8.2-11.6.2-17.4 0-.7 0-1.3-.6-1.3-1.4v-1.5c0-.7.6-1.3 1.3-1.4 5.8-.2 11.6-.2 17.4 0zm0 6.4c.7 0 1.3.6 1.3 1.4v1.5c0 .7-.6 1.3-1.3 1.4-5.8.2-11.6.2-17.4 0-.7 0-1.3-.6-1.3-1.4v-1.5c0-.7.6-1.3 1.3-1.4 5.8-.2 11.6-.2 17.4 0zm0-12.7c.7 0 1.3.6 1.3 1.4V10c0 .7-.6 1.3-1.3 1.4-5.8.2-11.6.2-17.4 0-.7-.1-1.3-.7-1.3-1.4V8.5c0-.7.6-1.3 1.3-1.4 5.8-.2 11.6-.2 17.4.1z"/></svg>
