<?xml version="1.0" encoding="UTF-8"?>
<svg width="30px" height="30px" viewBox="0 0 30 30" version="1.1" xmlns="http://www.w3.org/2000/svg" xmlns:xlink="http://www.w3.org/1999/xlink">
    <!-- Generator: sketchtool 52.4 (67378) - http://www.bohemiancoding.com/sketch -->
    <title>25BF2B97-FC9F-4745-81C0-A96E7B31D31F</title>
    <desc>Created with sketchtool.</desc>
    <defs>
        <path d="M12,4 C11.8690805,4.00008289 11.7382481,4.00675801 11.608,4.02 C11.5212279,4.02867426 11.4453169,4.08211039 11.4078803,4.16087038 C11.3704437,4.23963037 11.3769377,4.33223565 11.425,4.405 C11.9688674,5.22715438 11.8303546,6.32333902 11.0990737,6.98436691 C10.3677929,7.64539481 9.26323318,7.67286271 8.5,7.049 C8.43316281,6.99519951 8.34340524,6.97943263 8.26223384,7.00723384 C8.18106244,7.03503504 8.11981859,7.1025199 8.1,7.186 C8.03562988,7.45261313 8.00207693,7.72573414 8,8 C8,10.209139 9.790861,12 12,12 C14.209139,12 16,10.209139 16,8 C16,5.790861 14.209139,4 12,4 Z M23.092,5.665 C20.463,2.77 16.594,0.2 12.584,0.012 C12.389,0 12.2,0 12,0 C7.747,0.034 3.876,2.47 1.058,5.5 C1.008,5.554 0.958,5.609 0.908,5.664 C-0.301736298,6.98525164 -0.301736298,9.01174836 0.908,10.333 C2.113,11.662 6.471,16 11.872,16 L12.128,16 C17.528,16 21.887,11.662 23.094,10.333 C24.3030346,9.01156103 24.3021665,6.98540247 23.092,5.665 Z M21.614,8.987 C19.444,11.375 16.294,13.642 12.972,13.955 C12.6491559,13.9889565 12.3246006,14.0039822 12,14 C8.37,13.915 5.16,11.89 2.714,9.342 C2.60266667,9.226 2.493,9.10833333 2.385,8.989 C1.87787036,8.42718201 1.87787036,7.57281799 2.385,7.011 C4.752,4.4 8.332,1.915 12,2 C13.2888342,1.9985912 14.5642101,2.26203955 15.747,2.774 C16.9609223,3.2834703 18.1037588,3.94799611 19.147,4.751 C20.0382861,5.42541785 20.8651549,6.18098176 21.617,7.008 C22.1238806,7.57073842 22.1225844,8.42580094 21.614,8.987 Z" id="path-1"></path>
    </defs>
    <g id="Symbols" stroke="none" stroke-width="1" fill="none" fill-rule="evenodd">
        <g id="Elements/Icons/Look-Copy">
            <g id="Group" transform="translate(3.000000, 7.000000)">
                <g id="view">
                    <g id="Shape-+-Tint/Blauw-Mask">
                        <mask id="mask-2" fill="white">
                            <use xlink:href="#path-1"></use>
                        </mask>
                        <use id="Mask" fill="#000000" fill-rule="nonzero" xlink:href="#path-1"></use>
                        <g id="Tint/Blauw" mask="url(#mask-2)" fill="#050e1d">
                            <g transform="translate(-119.000000, -116.000000)" id="Rectangle-8">
                                <rect x="0" y="0" width="250" height="250"></rect>
                            </g>
                        </g>
                    </g>
                </g>
            </g>
        </g>
    </g>
</svg>
