<svg xmlns="http://www.w3.org/2000/svg" viewBox="0 0 30 30" preserveAspectRatio="xMinYMid"><path fill="#353535" d="M15 2c3.7 0 6.7 1.3 9.2 3.8C26.7 8.3 28 11.3 28 15s-1.2 6.7-3.7 9.1C21.7 26.7 18.6 28 15 28c-3.5 0-6.6-1.3-9.1-3.9C3.3 21.6 2 18.5 2 15c0-3.6 1.3-6.6 3.8-9.2C8.3 3.3 11.4 2 15 2zM4.9 11.5c-.4 1.1-.6 2.2-.6 3.5 0 2.9 1 5.4 3.1 7.5 2.1 2.1 4.6 3.1 7.5 3.1 2.9 0 5.4-1.1 7.5-3.2.8-.7 1.3-1.5 1.8-2.3L19.4 18c-.2.8-.6 1.5-1.2 2-.7.5-1.4.8-2.3.9v2h-1.5v-2c-1.4 0-2.7-.5-3.9-1.6l1.8-1.8c.8.8 1.8 1.2 2.9 1.2.4 0 .8-.1 1.1-.3.3-.2.5-.5.5-1 0-.3-.1-.6-.3-.8l-1.4-.6-1.5-.7-2-.9-6.7-2.9zm10.2-7.1c-2.9 0-5.4 1-7.4 3.1-.5.5-1 1.1-1.4 1.7l4.9 2.2c.2-.7.6-1.2 1.2-1.6.6-.4 1.3-.6 2.1-.7v-2H16v2c1.2.1 2.3.5 3.2 1.2L17.5 12c-.7-.5-1.5-.8-2.2-.8-.4 0-.8.1-1.1.2-.3.2-.5.4-.5.8 0 .1 0 .2.1.3l1.6.7 1.1.5 2.1.9 6.6 2.9c.2-.9.3-1.8.3-2.7 0-2.9-1-5.4-3.1-7.4-1.9-2-4.4-3-7.3-3z"/></svg>