<svg version="1.1" id="Слой_1" xmlns="http://www.w3.org/2000/svg" xmlns:xlink="http://www.w3.org/1999/xlink" x="0px" y="0px"
	 viewBox="0 0 30 30" style="enable-background:new 0 0 30 30;" xml:space="preserve">
<path d="M5.7,21.6v-10c0-2.1,1.7-3.7,3.7-3.7l0,0h6.3c0.3,0,0.7,0.1,0.9,0.4l0,0c0.5,0.5,0.5,1.3,0,1.8c0,0,0,0,0,0
	l-5.5,5.5c-1.2,1.2-1.3,3.1-0.3,4.4c1.1,1.3,3.1,1.5,4.4,0.3c0.1-0.1,0.1-0.1,0.2-0.2l5.6-5.6c0.5-0.5,1.3-0.5,1.8,0c0,0,0,0,0,0
	c0.2,0.2,0.4,0.6,0.4,0.9v6.3c0,2.1-1.7,3.8-3.8,3.8h-10C7.4,25.3,5.7,23.6,5.7,21.6L5.7,21.6z M22.2,10.6l-8.1,8.1
	c-0.5,0.5-1.3,0.5-1.8,0c-0.5-0.5-0.5-1.3,0-1.8l0,0l8.1-8.1c0.1-0.1,0.1-0.3,0-0.4c0,0,0,0,0,0l-2.6-2.6c-0.2-0.2-0.2-0.6,0-0.9
	c0.1-0.1,0.3-0.2,0.4-0.2h7.5c0.3,0,0.6,0.3,0.6,0.6v7.5c0,0.3-0.3,0.6-0.6,0.6c-0.2,0-0.3-0.1-0.4-0.2l-2.7-2.6
	C22.5,10.5,22.3,10.5,22.2,10.6L22.2,10.6z"/>
</svg>
