<svg xmlns="http://www.w3.org/2000/svg" viewBox="0 0 30 30" preserveAspectRatio="xMinYMid"><path fill="#353535" d="M14.7 2.5c3.6 0 6.6 1.2 9.1 3.7s3.7 5.5 3.7 9c0 3.6-1.2 6.6-3.6 9-2.6 2.5-5.6 3.8-9.1 3.8-3.4 0-6.4-1.3-9-3.8-2.5-2.5-3.8-5.5-3.8-9s1.3-6.5 3.8-9c2.4-2.5 5.4-3.7 8.9-3.7zm.1 2.3c-2.9 0-5.4 1-7.4 3.1-2.1 2.1-3.1 4.6-3.1 7.4 0 2.8 1 5.3 3.1 7.3 2.1 2.1 4.5 3.1 7.4 3.1 2.8 0 5.3-1 7.4-3.1 2-1.9 3-4.4 3-7.3 0-2.9-1-5.4-3.1-7.4-2-2.1-4.4-3.1-7.3-3.1zm-5.7 8.6c.2-1.6.9-2.8 1.9-3.6 1-.9 2.3-1.3 3.7-1.3 2 0 3.6.6 4.8 1.9s1.8 2.9 1.8 5c0 2-.6 3.6-1.8 4.9-1.2 1.3-2.8 1.9-4.8 1.9-1.4 0-2.7-.4-3.7-1.3s-1.7-2.1-1.9-3.7h3.2c.1 1.5 1 2.3 2.8 2.3.9 0 1.6-.4 2.2-1.2.5-.8.8-1.8.8-3.1 0-1.4-.3-2.4-.8-3.1-.5-.7-1.2-1.1-2.2-1.1-1.7 0-2.7.8-2.9 2.3h.9L10.6 16l-2.5-2.5h1z"/></svg>
