<svg xmlns="http://www.w3.org/2000/svg" viewBox="0 0 30 30" width="30" height="30"><path fill="#0077C8" d="M12.8 5.1c.6.1 1.1.6 1.2 1.2.2 2.2.2 4.3 0 6.5-.1.6-.6 1.1-1.2 1.2-2.2.2-4.3.2-6.5 0-.6-.1-1.1-.6-1.2-1.2-.1-2.2-.1-4.3 0-6.5 0-.6.6-1.1 1.2-1.2 2.2-.1 4.3-.1 6.5 0zm4.4 8.9c-.6-.1-1.1-.6-1.2-1.2-.2-2.2-.2-4.3 0-6.5 0-.6.6-1.1 1.2-1.2 2.2-.2 4.3-.2 6.5 0 .6.1 1.1.6 1.2 1.2.2 2.2.2 4.3 0 6.5-.1.6-.6 1.1-1.2 1.2-2.2.1-4.3.1-6.5 0zm-4.4 2c.6.1 1.1.6 1.2 1.2.2 2.2.2 4.3 0 6.5-.1.6-.6 1.1-1.2 1.2-2.2.2-4.3.2-6.5 0-.6-.1-1.1-.6-1.2-1.2-.2-2.2-.2-4.3 0-6.5.1-.6.6-1.1 1.2-1.2 2.2-.1 4.3-.1 6.5 0zm10.9 0c.6.1 1.1.6 1.2 1.2.2 2.2.2 4.3 0 6.5-.1.6-.6 1.1-1.2 1.2-2.2.2-4.3.2-6.5 0-.6-.1-1.1-.6-1.2-1.2-.2-2.2-.2-4.3 0-6.5.1-.6.6-1.1 1.2-1.2 2.2-.1 4.3-.1 6.5 0z"/></svg>
