<?xml version="1.0" encoding="UTF-8" standalone="no"?>
<!-- Generator: Adobe Illustrator 13.0.2, SVG Export Plug-In . SVG Version: 6.00 Build 14948)  -->

<svg
   xmlns:dc="http://purl.org/dc/elements/1.1/"
   xmlns:cc="http://creativecommons.org/ns#"
   xmlns:rdf="http://www.w3.org/1999/02/22-rdf-syntax-ns#"
   xmlns:svg="http://www.w3.org/2000/svg"
   xmlns="http://www.w3.org/2000/svg"
   xmlns:sodipodi="http://sodipodi.sourceforge.net/DTD/sodipodi-0.dtd"
   xmlns:inkscape="http://www.inkscape.org/namespaces/inkscape"
   version="1.1"
   id="Layer_1"
   x="0px"
   y="0px"
   width="384px"
   height="384.017px"
   viewBox="0 0 384 384.017"
   enable-background="new 0 0 384 384.017"
   xml:space="preserve"
   sodipodi:docname="cc-zero-2.svg"
   inkscape:version="0.92.5 (2060ec1f9f, 2020-04-08)"><metadata
   id="metadata9"><rdf:RDF><cc:Work
       rdf:about=""><dc:format>image/svg+xml</dc:format><dc:type
         rdf:resource="http://purl.org/dc/dcmitype/StillImage" /><dc:title></dc:title></cc:Work></rdf:RDF></metadata><defs
   id="defs7" /><sodipodi:namedview
   pagecolor="#ffffff"
   bordercolor="#666666"
   borderopacity="1"
   objecttolerance="10"
   gridtolerance="10"
   guidetolerance="10"
   inkscape:pageopacity="0"
   inkscape:pageshadow="2"
   inkscape:window-width="2768"
   inkscape:window-height="1492"
   id="namedview5"
   showgrid="false"
   inkscape:zoom="0.61455613"
   inkscape:cx="192"
   inkscape:cy="192.0085"
   inkscape:window-x="112"
   inkscape:window-y="54"
   inkscape:window-maximized="1"
   inkscape:current-layer="Layer_1" />
<path
   d="m 192,22.797669 c -96.150851,0 -174.100903,75.76443 -174.100903,169.219331 0,93.44432 77.950052,169.21933 174.100903,169.21933 96.15085,0 174.1009,-75.77501 174.1009,-169.21933 C 366.1009,98.561218 288.15085,22.797669 192,22.797669 Z m 0,306.708271 c -78.00355,0 -141.46061,-61.68309 -141.46061,-137.48894 0,-15.87048 2.813724,-31.1108 7.930658,-45.29614 l 55.325092,23.94542 c -1.48983,7.19623 -2.29777,14.70269 -2.29777,22.45593 0,67.55553 51.87845,86.59006 84.51874,86.59006 19.24812,0 35.9065,-6.03901 48.94684,-14.89835 2.47821,-1.72656 4.72339,-3.46371 6.7863,-5.2317 l -25.38064,-29.97385 c -0.74447,0.82671 -1.52157,1.61287 -2.31863,2.31619 -9.87206,9.09818 -20.72254,9.09818 -23.14726,9.09818 -26.55583,0 -37.67199,-27.23285 -37.8207,-49.04804 l 152.48065,65.98408 c 0.18045,0.0308 0.32916,0.0308 0.47788,0.0617 C 291.98016,300.59764 245.40001,329.50594 192,329.50594 Z M 328.31738,227.14852 171.04986,158.9214 c 5.6746,-9.98747 14.70608,-17.49393 28.22067,-17.49393 7.83454,0 14.04686,2.52243 18.93982,5.70763 2.03117,1.4269 3.79757,2.85293 5.2865,4.29041 l 28.34852,-28.3601 c -19.04047,-15.9119 -40.68792,-18.75514 -54.84541,-18.75514 -33.26778,0 -56.80858,13.97822 -70.68497,35.20467 L 73.723826,116.71704 C 99.035559,79.289604 142.5898,54.51748 192,54.51748 c 78.00265,0 141.46605,61.6734 141.46605,137.49952 0,12.27281 -1.69114,24.15165 -4.80863,35.48406 -0.12785,-0.12427 -0.21218,-0.22827 -0.34004,-0.35254 z"
   id="path2"
   fill="#353535"
   inkscape:connector-curvature="0"
   style="stroke-width:0.39397275" />
</svg>
