<svg version="1.1" xmlns="http://www.w3.org/2000/svg" xmlns:xlink="http://www.w3.org/1999/xlink" x="0px" y="0px"
	 viewBox="0 0 30 30" style="enable-background:new 0 0 30 30;" xml:space="preserve">
<path id="a_1_" fill="#0077c8" d="M9.4,9.9l5.3-5.3c0.2-0.2,0.5-0.3,0.8-0.3c0.3,0,0.7,0.1,0.9,0.4c0.4,0.5,0.3,1.1-0.1,1.6l-6,6.1
	l0-0.7C10.3,11,10,10.3,9.4,9.9z M4.5,19.8l-1.3-1.3C3,18.3,3,18,3.1,17.8l1.1-1.2l0,0l1.1-8.1c0-0.6,0.5-1.2,1.2-1.2
	c0.6,0,1.2,0.5,1.2,1.2l0,1.1c-1,0.2-1.7,1.1-1.7,2.1l-1.1,7.7L4.5,19.8L4.5,19.8z M17.7,6.5l0.6-0.6c0.2-0.2,0.5-0.3,0.8-0.3
	c0.3,0,0.7,0.1,0.9,0.4c0.4,0.5,0.3,1.1-0.1,1.6l-0.6,0.6C19.2,7.3,18.6,6.7,17.7,6.5z M25.1,6.9c-0.3,0-0.5-0.2-0.5-0.5
	c0-0.2,0.1-0.3,0.2-0.4L26.1,5c0.2-0.2,0.6-0.1,0.7,0.1C27,5.4,27,5.7,26.7,5.9l0,0l-1.3,0.9C25.3,6.9,25.2,6.9,25.1,6.9z M23.3,5.6
	C23,5.5,22.9,5.2,23,4.9c0,0,0,0,0,0l0.6-1.5c0.1-0.3,0.4-0.4,0.7-0.3c0.3,0.1,0.4,0.4,0.3,0.7c0,0,0,0,0,0l-0.6,1.5
	C23.8,5.6,23.5,5.7,23.3,5.6C23.3,5.6,23.3,5.6,23.3,5.6z M27.4,7.9c0.3,0,0.5,0.2,0.5,0.5c0,0.3-0.2,0.5-0.5,0.5c0,0,0,0,0,0
	l-1.6,0h0c-0.3,0-0.5-0.2-0.5-0.5c0-0.3,0.2-0.5,0.5-0.5c0,0,0,0,0,0L27.4,7.9C27.4,7.9,27.4,7.9,27.4,7.9z M23.8,18.5l-3,3
	c-2.6,2.6-5.3,4.7-7.7,5.2c-0.1,0-0.1,0-0.2,0.1l-1.4,1c-0.2,0.1-0.5,0.1-0.6,0l-6.1-6.1c-0.2-0.2-0.2-0.5,0-0.7l1.1-1.2l0,0L7,11.7
	c0-0.6,0.5-1.2,1.2-1.2c0.6,0,1.2,0.5,1.2,1.2l0.1,1.9c0,0.3,0.3,0.5,0.5,0.5c0.1,0,0.3-0.1,0.4-0.2l6.1-6.2
	c0.2-0.2,0.5-0.3,0.8-0.3c0.3,0,0.7,0.1,0.9,0.4C18.5,8.4,18.5,9,18,9.5l-4.2,4.2c-0.2,0.2-0.2,0.6,0,0.8c0.1,0.1,0.3,0.2,0.4,0.2
	c0.2,0,0.3-0.1,0.4-0.2L20,9.1c0.2-0.2,0.5-0.3,0.8-0.3c0.3,0,0.7,0.1,0.9,0.4c0.4,0.5,0.3,1.2-0.1,1.6l-5.4,5.4
	c-0.2,0.2-0.2,0.6,0,0.8c0.2,0.2,0.6,0.2,0.8,0c0,0,0,0,0,0l4.3-4.3c0.2-0.2,0.5-0.3,0.8-0.3c0.3,0,0.7,0.1,0.9,0.4
	c0.4,0.5,0.3,1.2-0.1,1.6l-4.2,4.2c-0.2,0.2-0.2,0.6,0,0.8c0,0,0,0,0,0l0,0c0.2,0.2,0.5,0.2,0.8,0c0,0,0,0,0,0l2.6-2.6
	c0.2-0.2,0.5-0.4,0.9-0.4c0.3,0,0.5,0.1,0.7,0.2C24.2,17.1,24.3,18,23.8,18.5L23.8,18.5z"/>
</svg>
