<?xml version="1.0" standalone="no"?>
<!DOCTYPE svg PUBLIC "-//W3C//DTD SVG 20010904//EN"
 "http://www.w3.org/TR/2001/REC-SVG-20010904/DTD/svg10.dtd">
<svg version="1.0" xmlns="http://www.w3.org/2000/svg"
 width="700.000000pt" height="700.000000pt" viewBox="0 0 700.000000 700.000000"
 preserveAspectRatio="xMidYMid meet">
<metadata>
Created by potrace 1.11, written by Peter Selinger 2001-2013
</metadata>
<g transform="translate(0.000000,700.000000) scale(0.100000,-0.100000)"
fill="#000000" stroke="none">
<path d="M500 5110 l0 -30 -80 0 c-78 0 -80 -1 -80 -24 0 -19 -6 -25 -27 -28
-22 -2 -29 -9 -31 -30 -3 -24 -8 -28 -33 -28 -26 0 -29 -3 -29 -30 0 -25 -4
-30 -25 -30 -20 0 -25 -5 -25 -24 0 -19 -6 -25 -27 -28 -22 -2 -29 -9 -31 -30
-3 -22 -9 -28 -28 -28 -24 0 -24 -2 -24 -85 l0 -85 -30 0 -30 0 0 -565 0 -565
30 0 30 0 0 -80 c0 -78 1 -80 24 -80 21 0 25 -6 28 -32 2 -28 8 -34 30 -36 26
-3 28 -6 28 -52 l0 -49 55 -6 c49 -7 55 -10 55 -31 0 -20 5 -24 30 -24 27 0
30 -3 30 -30 0 -30 1 -30 55 -30 51 0 55 -2 55 -23 0 -23 2 -24 128 -30 70 -4
1003 -7 2075 -7 l1947 0 0 -25 c0 -25 1 -25 80 -25 l80 0 0 -30 c0 -27 3 -30
30 -30 25 0 30 -4 30 -24 0 -19 6 -25 28 -28 21 -2 28 -9 30 -30 3 -24 8 -28
33 -28 24 0 29 -4 29 -25 0 -20 5 -25 25 -25 22 0 25 -4 25 -35 0 -30 3 -35
24 -35 22 0 25 -5 31 -55 7 -49 10 -55 31 -55 l24 0 0 -305 0 -305 30 0 30 0
0 -60 0 -60 30 0 c25 0 30 -4 30 -25 0 -20 5 -25 25 -25 21 0 25 -5 25 -30 0
-27 3 -30 30 -30 27 0 30 -3 30 -30 0 -30 1 -30 55 -30 51 0 55 -2 55 -24 0
-22 4 -23 83 -29 107 -9 897 -9 1005 0 78 6 82 7 82 29 0 22 4 24 55 24 54 0
55 0 55 30 0 27 3 30 30 30 25 0 30 4 30 25 0 21 5 25 30 25 27 0 30 3 30 30
0 25 4 30 25 30 22 0 25 5 31 60 6 55 9 60 30 60 l24 0 0 360 0 360 -24 0
c-22 0 -25 5 -31 60 -6 55 -9 60 -31 60 -19 0 -24 5 -24 25 0 21 -5 25 -30 25
-27 0 -30 3 -30 30 0 27 -3 30 -30 30 -27 0 -30 3 -30 30 l0 30 -80 0 c-79 0
-80 0 -80 25 l0 25 -388 0 c-214 0 -430 3 -480 6 -88 7 -92 8 -92 30 0 23 -3
24 -80 24 l-80 0 0 30 c0 27 -3 30 -30 30 -25 0 -30 4 -30 24 0 19 -6 25 -27
28 -22 2 -29 9 -31 31 -3 21 -9 27 -28 27 -20 0 -24 5 -24 30 0 25 -4 30 -24
30 -21 0 -24 6 -31 55 -6 50 -9 55 -31 55 l-24 0 0 565 0 565 -30 0 -30 0 0
110 c0 109 0 110 -24 110 -21 0 -24 6 -31 55 -6 50 -9 55 -31 55 -20 0 -24 5
-24 30 0 25 -4 30 -25 30 -21 0 -25 5 -25 30 0 28 -3 30 -35 30 -30 0 -35 3
-35 24 0 21 -6 25 -50 31 -44 6 -50 10 -50 31 0 22 -4 24 -55 24 -54 0 -55 0
-55 30 l0 30 -2080 0 -2080 0 0 -30z m630 -565 c0 -25 1 -25 80 -25 l80 0 0
-30 c0 -25 4 -30 25 -30 24 0 25 -3 25 -55 0 -52 -1 -55 -25 -55 -21 0 -25 -5
-25 -30 0 -30 -1 -30 -55 -30 -54 0 -55 0 -55 30 l0 30 -140 0 -140 0 0 -30
c0 -25 -4 -30 -25 -30 -20 0 -25 -5 -25 -24 0 -21 6 -25 50 -31 44 -6 50 -10
50 -31 0 -23 2 -24 85 -24 83 0 85 -1 85 -24 0 -22 5 -25 60 -31 55 -6 60 -9
60 -31 0 -19 5 -24 25 -24 21 0 25 -5 25 -30 0 -25 4 -30 24 -30 19 0 24 -6
30 -37 3 -21 6 -67 6 -103 0 -36 -3 -82 -6 -102 -6 -32 -11 -38 -30 -38 -20 0
-24 -5 -24 -30 0 -25 -4 -30 -25 -30 -20 0 -25 -5 -25 -24 0 -22 -5 -25 -60
-31 -55 -6 -60 -9 -60 -31 l0 -24 -140 0 -140 0 0 25 c0 22 -4 25 -39 25 -21
0 -59 3 -85 6 -40 6 -46 10 -46 30 0 19 -5 24 -25 24 -25 0 -25 1 -25 85 l0
85 85 0 c83 0 85 -1 85 -24 0 -23 3 -24 105 -31 58 -4 132 -4 164 0 58 7 59 7
64 42 4 20 4 56 0 79 -6 43 -7 44 -43 44 -20 0 -58 3 -84 6 -40 6 -46 10 -46
30 0 23 -3 24 -80 24 -78 0 -80 1 -80 24 0 21 -6 24 -54 30 l-54 7 -7 55 c-6
49 -9 54 -31 54 -24 0 -24 2 -24 85 0 83 1 85 24 85 21 0 24 6 31 55 6 50 9
55 31 55 20 0 24 5 24 30 l0 30 60 0 c57 0 60 1 60 25 l0 25 140 0 140 0 0
-25z m610 0 c0 -21 5 -25 30 -25 l30 0 0 -310 0 -310 25 0 c21 0 25 -5 25 -30
0 -27 3 -30 30 -30 25 0 30 -4 30 -25 l0 -25 110 0 110 0 0 25 c0 21 5 25 30
25 27 0 30 3 30 30 0 25 4 30 25 30 l25 0 0 310 0 310 30 0 c25 0 30 4 30 25
0 24 3 25 55 25 52 0 55 -1 55 -25 0 -21 5 -25 30 -25 l30 0 0 -310 0 -310
-30 0 -30 0 0 -60 c0 -57 -1 -60 -24 -60 -22 0 -25 -5 -31 -55 l-7 -55 -48 0
c-46 0 -49 -2 -52 -27 -3 -27 -6 -28 -60 -31 -54 -3 -58 -5 -58 -27 l0 -25
-110 0 -110 0 0 25 c0 22 -4 24 -57 27 -55 3 -58 4 -61 31 -3 25 -6 27 -52 27
l-48 0 -7 55 c-6 49 -9 55 -30 55 -21 0 -24 6 -30 60 -6 55 -9 60 -31 60 l-24
0 0 310 0 310 30 0 c25 0 30 4 30 25 0 24 3 25 55 25 52 0 55 -1 55 -25z
m1450 0 c0 -25 1 -25 85 -25 l85 0 0 -30 c0 -27 3 -30 30 -30 27 0 30 -3 30
-30 0 -25 4 -30 24 -30 19 0 24 -6 30 -37 8 -50 8 -247 0 -307 -6 -40 -10 -46
-30 -46 -19 0 -24 -5 -24 -25 0 -20 -5 -25 -24 -25 -33 0 -38 -11 -30 -70 6
-44 9 -50 30 -50 22 0 24 -4 24 -55 0 -52 1 -55 25 -55 24 0 25 -3 25 -54 l0
-54 -50 -7 c-44 -6 -50 -10 -50 -31 0 -20 -5 -24 -30 -24 -25 0 -30 4 -30 25
0 21 -5 25 -30 25 -27 0 -30 3 -30 30 0 25 -4 30 -24 30 -22 0 -25 5 -31 60
-6 55 -9 60 -31 60 -22 0 -24 4 -24 50 l0 50 -85 0 c-84 0 -85 0 -85 -25 0
-20 -5 -25 -25 -25 -24 0 -24 0 -27 -112 l-3 -113 -27 -3 c-22 -3 -28 -9 -28
-28 0 -22 -3 -24 -55 -24 l-55 0 0 55 c0 54 0 55 -30 55 l-30 0 0 395 0 395
30 0 c27 0 30 3 30 30 0 27 3 30 30 30 25 0 30 4 30 25 l0 25 190 0 190 0 0
-25z m1240 0 c0 -20 5 -25 25 -25 24 0 25 -3 25 -60 0 -57 -1 -60 -25 -60 -20
0 -25 -5 -25 -25 l0 -25 -225 0 -225 0 0 -110 0 -110 128 0 c70 0 143 -3 163
-6 34 -6 37 -9 42 -48 3 -22 3 -60 0 -83 -5 -37 -9 -43 -29 -43 -19 0 -24 -5
-24 -25 l0 -25 -140 0 -140 0 0 -115 0 -115 -24 0 c-22 0 -25 -5 -31 -55 l-7
-55 -54 0 c-51 0 -54 2 -54 24 0 19 -6 25 -27 28 l-28 3 -3 453 -2 452 35 0
c31 0 35 3 35 25 l0 25 305 0 305 0 0 -25z"/>
<path d="M2920 4235 l0 -115 25 0 c20 0 25 -5 25 -25 l0 -25 110 0 110 0 0 25
c0 21 5 25 30 25 l30 0 0 85 c0 84 0 85 -25 85 -21 0 -25 5 -25 30 l0 30 -140
0 -140 0 0 -115z"/>
</g>
</svg>
