<svg width="30px" height="30px" viewBox="0 0 30 30" version="1.1" xmlns="http://www.w3.org/2000/svg" xmlns:xlink="http://www.w3.org/1999/xlink">
    <defs>
        <path d="M12.7339643,0.486571429 C16.3177857,0.486571429 19.3402857,1.71646429 21.8000714,4.17717857 C24.2756429,6.65228571 25.5134286,9.67432143 25.5134286,13.2432857 C25.5134286,16.8275714 24.2983929,19.8115357 21.8683214,22.1956429 C19.2864286,24.7320357 16.2421071,26 12.7339643,26 C9.28617857,26 6.29478571,24.7468929 3.75885714,22.2411429 C1.25310714,19.7353929 0,16.7361071 0,13.2432857 C0,9.75046429 1.25310714,6.72842857 3.75885714,4.17717857 C6.21910714,1.71646429 9.2105,0.486571429 12.7339643,0.486571429 Z M12.7794643,2.78710714 C9.87860714,2.78710714 7.42625,3.80482143 5.42192857,5.83978571 C3.341,7.96621429 2.301,10.4338929 2.301,13.2432857 C2.301,16.068 3.33310714,18.5133929 5.39871429,20.5780714 C7.46432143,22.6436786 9.92410714,23.67625 12.7794643,23.67625 C15.6190357,23.67625 18.0946071,22.63625 20.2057143,20.5557857 C22.2105,18.6271429 23.2124286,16.1896429 23.2124286,13.2432857 C23.2124286,10.3424286 22.1947143,7.87475 20.1602143,5.83978571 C18.1247857,3.80482143 15.665,2.78710714 12.7794643,2.78710714 Z M16.1966071,10.0768571 L16.1966071,15.2935714 L14.7382857,15.2935714 L14.7382857,21.4894643 L10.7746786,21.4894643 L10.7746786,15.2935714 L9.31682143,15.2935714 L9.31682143,10.0768571 C9.31682143,9.84889286 9.39667857,9.65575 9.55592857,9.49603571 C9.71564286,9.33632143 9.90925,9.25692857 10.1372143,9.25692857 L15.3766786,9.25692857 C15.5888571,9.25692857 15.77875,9.33632143 15.9458929,9.49603571 C16.1125714,9.65575 16.1966071,9.84889286 16.1966071,10.0768571 Z M10.9798929,6.79667857 C10.9798929,5.59696429 11.5723214,4.99710714 12.7567143,4.99710714 C13.9411071,4.99710714 14.5335357,5.59696429 14.5335357,6.79667857 C14.5335357,7.98107143 13.9411071,8.5735 12.7567143,8.5735 C11.5723214,8.5735 10.9798929,7.98107143 10.9798929,6.79667857 Z" id="path-1"></path>
    </defs>
    <g id="Symbols" stroke="none" stroke-width="1" fill="none" fill-rule="evenodd">
        <g id="Elements/Icons/Creative-Common-License/BY-Copy-14">
            <g id="Tint/Blauw" transform="translate(2.000000, 2.000000)">
                <mask id="mask-2" fill="white">
                    <use xlink:href="#path-1"></use>
                </mask>
                <use id="Mask" fill="#686d75" xlink:href="#path-1"></use>
                <g mask="url(#mask-2)" fill="#353535" id="Rectangle-8">
                    <g transform="translate(-106.000000, -113.000000)">
                        <rect x="0" y="0" width="250" height="250"></rect>
                    </g>
                </g>
            </g>
        </g>
    </g>
</svg>
