<svg version="1.1" xmlns="http://www.w3.org/2000/svg" xmlns:xlink="http://www.w3.org/1999/xlink" x="0px" y="0px"
	 viewBox="0 0 30 30" style="enable-background:new 0 0 30 30;" xml:space="preserve">
<path fill="#353535" d="M14.7,2.5c3.6,0,6.6,1.2,9.1,3.7c2.5,2.5,3.7,5.5,3.7,9.1c0,3.6-1.2,6.6-3.6,9c-2.6,2.5-5.6,3.8-9.1,3.8
	c-3.4,0-6.4-1.3-9-3.8c-2.5-2.5-3.8-5.5-3.8-9s1.3-6.5,3.8-9.1C8.2,3.7,11.2,2.5,14.7,2.5z M14.8,4.8c-2.9,0-5.4,1-7.4,3.1
	c-2.1,2.1-3.1,4.6-3.1,7.4c0,2.8,1,5.3,3.1,7.3c2.1,2.1,4.5,3.1,7.4,3.1c2.8,0,5.3-1,7.4-3.1c2-1.9,3-4.4,3-7.3c0-2.9-1-5.4-3.1-7.4
	C20.1,5.8,17.7,4.8,14.8,4.8z M18.2,12.1v5.2h-1.5v6.2h-4v-6.2h-1.5v-5.2c0-0.2,0.1-0.4,0.2-0.6c0.2-0.2,0.4-0.2,0.6-0.2h5.2
	c0.2,0,0.4,0.1,0.6,0.2C18.1,11.7,18.2,11.8,18.2,12.1z M13,8.8C13,7.6,13.6,7,14.8,7s1.8,0.6,1.8,1.8c0,1.2-0.6,1.8-1.8,1.8
	S13,10,13,8.8z"/>
</svg>
