<svg xmlns="http://www.w3.org/2000/svg" xmlns:xlink="http://www.w3.org/1999/xlink" width="30" height="30" viewBox="0 0 30 30">
    <defs>
        <path id="a" d="M7.78.12a1.297 1.297 0 0 1 1.19 1.192 43.64 43.64 0 0 1 0 6.468 1.297 1.297 0 0 1-1.19 1.19c-2.154.161-4.316.161-6.47 0A1.297 1.297 0 0 1 .12 7.78a43.64 43.64 0 0 1 0-6.468A1.297 1.297 0 0 1 1.31.12C3.465-.04 5.627-.04 7.78.12zm4.44 8.85a1.297 1.297 0 0 1-1.19-1.19 43.64 43.64 0 0 1 0-6.468A1.297 1.297 0 0 1 12.22.12c2.154-.161 4.316-.161 6.47 0a1.297 1.297 0 0 1 1.19 1.19 43.64 43.64 0 0 1 0 6.469 1.297 1.297 0 0 1-1.19 1.19c-2.154.162-4.316.162-6.47 0zm-4.44 2.06a1.297 1.297 0 0 1 1.19 1.19 43.64 43.64 0 0 1 0 6.468 1.297 1.297 0 0 1-1.19 1.191c-2.154.161-4.316.161-6.47 0a1.297 1.297 0 0 1-1.19-1.19 43.64 43.64 0 0 1 0-6.469 1.297 1.297 0 0 1 1.19-1.19c2.154-.161 4.316-.161 6.47 0zm10.909 0a1.297 1.297 0 0 1 1.19 1.19 43.64 43.64 0 0 1 0 6.468 1.297 1.297 0 0 1-1.19 1.191c-2.154.161-4.316.161-6.47 0a1.297 1.297 0 0 1-1.19-1.19 43.64 43.64 0 0 1 0-6.469 1.297 1.297 0 0 1 1.19-1.19c2.154-.161 4.316-.161 6.47 0z"/>
    </defs>
    <g fill="none" fill-rule="evenodd" transform="translate(5 5)">
        <mask id="b" fill="#fff">
            <use xlink:href="#a"/>
        </mask>
        <use fill="#353535" xlink:href="#a"/>
        <g fill="#0077C8" mask="url(#b)">
            <path d="M-112-112h250v250h-250z"/>
        </g>
    </g>
</svg>
