<svg version="1.1" xmlns="http://www.w3.org/2000/svg" xmlns:xlink="http://www.w3.org/1999/xlink" x="0px" y="0px"
	 viewBox="0 0 30 30" style="enable-background:new 0 0 30 30;" xml:space="preserve">
<path fill="#353535" d="M15,2c3.6,0,6.7,1.3,9.3,3.8C25.5,7,26.4,8.4,27,10c0.6,1.6,1,3.3,1,5c0,1.8-0.3,3.4-0.9,5c-0.6,1.6-1.6,3-2.8,4.1
	C23,25.4,21.6,26.3,20,27c-1.6,0.7-3.3,1-5,1s-3.4-0.3-4.9-1c-1.6-0.7-3-1.6-4.2-2.9C4.6,23,3.6,21.5,3,19.9c-0.7-1.6-1-3.2-1-4.9
	c0-1.7,0.3-3.4,1-5c0.7-1.6,1.6-3,2.9-4.3C8.3,3.3,11.4,2,15,2z M15,4.3c-3,0-5.5,1-7.5,3.1c-1,1-1.8,2.2-2.4,3.5
	c-0.5,1.3-0.8,2.7-0.8,4.1c0,1.4,0.3,2.7,0.8,4c0.6,1.3,1.4,2.5,2.4,3.5c1,1,2.2,1.8,3.5,2.3c1.3,0.5,2.6,0.8,4,0.8
	c1.4,0,2.7-0.3,4.1-0.8c1.3-0.5,2.5-1.3,3.5-2.3c2-2,3-4.5,3-7.5c0-1.4-0.3-2.8-0.8-4.1c-0.5-1.3-1.3-2.5-2.3-3.4
	C20.5,5.4,18,4.3,15,4.3z M14.9,12.8l-1.7,0.9c-0.2-0.4-0.4-0.7-0.7-0.8c-0.3-0.2-0.5-0.2-0.8-0.2c-1.2,0-1.7,0.8-1.7,2.3
	c0,0.7,0.1,1.3,0.4,1.7c0.3,0.4,0.7,0.6,1.3,0.6c0.8,0,1.3-0.4,1.6-1.1l1.6,0.8c-0.7,1.3-2,2.1-3.4,2c-1.2,0-2.1-0.4-2.8-1.1
	c-0.7-0.7-1.1-1.7-1.1-3c0-1.2,0.4-2.2,1.1-2.9s1.6-1.1,2.7-1.1C13,11,14.2,11.6,14.9,12.8z M22.4,12.8l-1.7,0.9
	c-0.2-0.4-0.4-0.7-0.7-0.8c-0.3-0.2-0.5-0.2-0.8-0.2c-1.2,0-1.7,0.8-1.7,2.3c0,0.7,0.1,1.3,0.4,1.7c0.3,0.4,0.7,0.6,1.3,0.6
	c0.8,0,1.3-0.4,1.6-1.1l1.6,0.8c-0.3,0.6-0.8,1.1-1.4,1.5c-0.6,0.4-1.3,0.5-2,0.5c-1.2,0-2.1-0.4-2.8-1.1c-0.7-0.7-1.1-1.7-1.1-3
	c0-1.2,0.4-2.2,1.1-2.9c0.7-0.7,1.6-1.1,2.7-1.1C20.5,11,21.7,11.6,22.4,12.8z"/>
</svg>
