<svg xmlns="http://www.w3.org/2000/svg" xmlns:xlink="http://www.w3.org/1999/xlink" width="30" height="30" viewBox="0 0 30 30">
    <defs>
        <path id="a" d="M6.412 7.69l5.328-5.328c.227-.227.527-.34.826-.34.342 0 .684.148.919.444.371.47.306 1.15-.118 1.574l-6.019 6.13-.02-.71a2.204 2.204 0 0 0-.916-1.77zM1.47 17.56L.144 16.236a.49.49 0 0 1-.025-.667l1.072-1.247.001-.002 1.111-8.077c0-.636.52-1.157 1.157-1.157.636 0 1.157.52 1.157 1.157l.031 1.082a2.209 2.209 0 0 0-1.728 2.07l-1.061 7.713-.39.452zM14.743 4.268l.641-.641c.227-.228.527-.341.826-.341.343 0 .685.148.919.444.372.47.306 1.15-.117 1.575l-.625.624a2.208 2.208 0 0 0-1.644-1.661zm7.383.453a.523.523 0 0 1-.303-.951l1.308-.927a.524.524 0 0 1 .606.856l-1.309.926a.523.523 0 0 1-.302.096zM20.27 3.398a.524.524 0 0 1-.306-.675l.564-1.5a.524.524 0 1 1 .98.368l-.563 1.5a.524.524 0 0 1-.675.307zm4.118 2.29c.285 0 .519.207.524.493a.518.518 0 0 1-.513.528l-1.603.027h-.01a.528.528 0 0 1-.524-.518.509.509 0 0 1 .513-.517l1.603-.013h.01zM20.782 16.25l-3.024 3.025c-2.583 2.583-5.283 4.656-7.655 5.173a.503.503 0 0 0-.199.091l-1.367 1.05a.49.49 0 0 1-.645-.042l-6.085-6.074a.49.49 0 0 1-.025-.668l1.072-1.247.001-.002 1.11-8.077A1.16 1.16 0 0 1 5.124 8.32c.637 0 1.157.52 1.157 1.157l.055 1.906a.536.536 0 0 0 .917.365l6.15-6.152c.228-.227.527-.34.827-.34.342 0 .684.147.919.444.371.47.306 1.15-.117 1.574l-4.238 4.238a.563.563 0 0 0 .403.963.57.57 0 0 0 .404-.167l5.447-5.447c.227-.228.527-.341.827-.341.342 0 .684.148.918.444.372.47.306 1.151-.117 1.575l-5.422 5.422a.571.571 0 0 0 0 .807.561.561 0 0 0 .796 0l4.263-4.263c.227-.227.526-.34.826-.34.342 0 .684.147.918.443.372.47.307 1.151-.117 1.575l-4.222 4.223a.584.584 0 0 0 0 .826l.006.007a.538.538 0 0 0 .764 0l2.618-2.618a1.23 1.23 0 0 1 .866-.361c.25 0 .5.079.708.244.556.44.59 1.258.103 1.744z"/>
    </defs>
    <g fill="none" fill-rule="evenodd">
        <g transform="translate(3 2.2)">
            <mask id="b" fill="#009f4d">
                <use xlink:href="#a"/>
            </mask>
            <use fill="#009f4d" xlink:href="#a"/>
            <g fill="#009f4d" mask="url(#b)">
                <path d="M-108-114.2h250v250h-250z"/>
            </g>
        </g>
    </g>
</svg>
