<?xml version="1.0" encoding="UTF-8"?>
<svg width="30px" height="30px" viewBox="0 0 30 30" version="1.1" xmlns="http://www.w3.org/2000/svg" xmlns:xlink="http://www.w3.org/1999/xlink">
    <!-- Generator: sketchtool 52.4 (67378) - http://www.bohemiancoding.com/sketch -->
    <title>29C79769-62CD-4D67-AF5C-24CCA07F17BD</title>
    <desc>Created with sketchtool.</desc>
    <defs>
        <path d="M23.9433333,5.44255556 C24.3106111,5.6045 24.552,5.96505556 24.5660556,6.36594444 C24.5807222,6.76744444 24.3656111,7.13961111 24.0099444,7.33027778 L12.7783333,13.3197778 C12.6231111,13.4010556 12.4538333,13.4413889 12.2821111,13.4413889 C12.1122222,13.4413889 11.9429444,13.4010556 11.7877222,13.3197778 L0.556111111,7.33027778 C0.202888889,7.13961111 -0.0122222222,6.76744444 0.00244444444,6.36594444 C0.0140555556,5.96505556 0.257888889,5.6045 0.623333333,5.44255556 L11.8543333,0.431444444 C12.1293333,0.309833333 12.4391667,0.309833333 12.7117222,0.431444444 L23.9433333,5.44255556 Z M23.0193333,9.92322222 C23.5326667,9.64822222 24.1700556,9.84438889 24.442,10.3552778 C24.7163889,10.8686111 24.5208333,11.506 24.0099444,11.7779444 L12.7783333,17.7698889 C12.6231111,17.853 12.4538333,17.8939444 12.2821111,17.8939444 C12.1122222,17.8939444 11.9429444,17.853 11.7877222,17.7698889 L0.556111111,11.7779444 C0.0452222222,11.506 -0.150333333,10.8686111 0.124055556,10.3552778 C0.396,9.84438889 1.03338889,9.64822222 1.54672222,9.92322222 L12.2821111,15.6499444 L23.0193333,9.92322222 Z M23.0193333,14.0311111 C23.5326667,13.7567222 24.1700556,13.9522778 24.442,14.4631667 C24.7163889,14.9765 24.5208333,15.6138889 24.0099444,15.8858333 L12.7783333,21.8753333 C12.6231111,21.9590556 12.4538333,21.9993889 12.2821111,21.9993889 C12.1122222,21.9993889 11.9429444,21.9590556 11.7877222,21.8753333 L0.556111111,15.8858333 C0.0452222222,15.6138889 -0.150333333,14.9765 0.124055556,14.4631667 C0.396,13.9522778 1.03338889,13.7567222 1.54672222,14.0311111 L12.2821111,19.7578333 L23.0193333,14.0311111 Z" id="path-1"></path>
        <polygon id="path-3" points="0 0.341 24.5667606 0.341 24.5667606 21.9993889 0 21.9993889"></polygon>
    </defs>
    <g id="Symbols" stroke="none" stroke-width="1" fill="none" fill-rule="evenodd">
        <g id="Elements/Icons/Collection">
            <g id="stacked-files" transform="translate(3.000000, 4.000000)">
                <g id="Fill-3-+-Fill-4-+-Tint/Blauw-Mask">
                    <mask id="mask-2" fill="white">
                        <use xlink:href="#path-1"></use>
                    </mask>
                    <use id="Mask" fill="#050e1d" xlink:href="#path-1"></use>
                    <g id="Tint/Blauw" mask="url(#mask-2)" fill="#050e1d">
                        <g transform="translate(-109.000000, -116.000000)" id="Rectangle-8">
                            <rect x="0" y="0" width="250" height="250"></rect>
                        </g>
                    </g>
                </g>
                <mask id="mask-4" fill="white">
                    <use xlink:href="#path-3"></use>
                </mask>
                <g id="Clip-2"></g>
            </g>
        </g>
    </g>
</svg>
