<svg version="1.1" xmlns="http://www.w3.org/2000/svg" x="0px" y="0px"
	 viewBox="0 0 30 30" style="enable-background:new 0 0 30 30;" xml:space="preserve">
<path fill="#0077C8" d="M16.2,18.9H16c-0.1,0-0.3,0-0.4,0c-0.1,0-0.2,0-0.4-0.1l-0.2,0c-0.1,0-0.1,0-0.2-0.1
	c-0.1,0-0.1,0-0.2-0.1c-0.1,0-0.1,0-0.2-0.1c-0.4-0.2-0.8-0.5-1.2-0.8c-0.2-0.2-0.4-0.6-0.3-0.9c0-0.3,0.1-0.5,0.3-0.7
	c0.5-0.4,1.2-0.4,1.6,0c0.7,0.7,1.8,0.7,2.5,0l1-1l0,0l2.7-2.7c0.7-0.7,0.7-1.8,0-2.5c-0.7-0.7-1.8-0.7-2.5,0l-2.2,2.2
	c-0.1,0.1-0.2,0.1-0.3,0.1c-0.6-0.2-1.2-0.4-1.9-0.4h-0.1c-0.1,0-0.2-0.1-0.3-0.2c0-0.1,0-0.2,0.1-0.3L17,8.2c1.6-1.6,4.2-1.6,5.8,0
	s1.6,4.2,0,5.8l-3.7,3.7c-0.5,0.5-1.2,0.9-1.9,1.1h0l-0.2,0l-0.1,0l-0.2,0h-0.1c-0.1,0-0.1,0-0.2,0L16.2,18.9z M11.1,24
	C8.8,24,7,22.2,7,19.9c0-1.1,0.4-2.1,1.2-2.9l3.7-3.7c0.8-0.8,1.8-1.2,2.9-1.2c0.8,0,1.5,0.2,2.2,0.6c0.2,0.2,0.5,0.3,0.7,0.6
	c0.2,0.2,0.4,0.6,0.3,0.9c0,0.3-0.1,0.5-0.3,0.7c-0.5,0.4-1.2,0.4-1.6,0c-0.7-0.7-1.8-0.7-2.5,0l-3.7,3.7c-0.7,0.7-0.7,1.8,0,2.5
	c0.7,0.7,1.8,0.7,2.5,0l2.2-2.2c0.1-0.1,0.2-0.1,0.3-0.1c0.6,0.2,1.2,0.4,1.9,0.4h0.1c0.2,0,0.3,0.1,0.3,0.3c0,0.1,0,0.2-0.1,0.2
	L14,22.8C13.2,23.6,12.2,24,11.1,24z"/>
</svg>
