<svg xmlns="http://www.w3.org/2000/svg" xmlns:xlink="http://www.w3.org/1999/xlink" width="30" height="30" viewBox="0 0 30 30">
    <defs>
        <path id="a" d="M18.688 6.535A1.37 1.37 0 0 1 20 7.904v1.464c0 .733-.58 1.34-1.312 1.37-5.79.228-11.586.228-17.376 0A1.37 1.37 0 0 1 0 9.367V7.904c0-.734.58-1.34 1.312-1.37 5.79-.227 11.586-.227 17.376 0zm0 6.363A1.37 1.37 0 0 1 20 14.268v1.464c0 .733-.58 1.34-1.312 1.37-5.79.227-11.586.227-17.376 0A1.37 1.37 0 0 1 0 15.731v-1.464c0-.734.58-1.34 1.312-1.37 5.79-.228 11.586-.228 17.376 0zm0-12.727A1.37 1.37 0 0 1 20 1.541v1.464c0 .732-.58 1.34-1.312 1.369-5.79.228-11.586.228-17.376 0A1.37 1.37 0 0 1 0 3.004V1.54C0 .807.58.2 1.312.171c5.79-.228 11.586-.228 17.376 0z"/>
    </defs>
    <g fill="none" fill-rule="evenodd" transform="translate(5 7)">
        <mask id="b" fill="#fff">
            <use xlink:href="#a"/>
        </mask>
        <use fill="#353535" xlink:href="#a"/>
        <g fill="#0077C8" mask="url(#b)">
            <path d="M-113-108h250v250h-250z"/>
        </g>
    </g>
</svg>
