<?xml version="1.0" encoding="UTF-8"?>
<svg width="30px" height="30px" viewBox="0 0 30 30" version="1.1" xmlns="http://www.w3.org/2000/svg" xmlns:xlink="http://www.w3.org/1999/xlink">
    <!-- Generator: sketchtool 52.4 (67378) - http://www.bohemiancoding.com/sketch -->
    <title>3390FEC9-3A37-4CE6-A021-39112A48A3EC</title>
    <desc>Created with sketchtool.</desc>
    <defs>
        <path d="M12.9768161,0 C16.6289853,0 19.709128,1.25382152 22.2158247,3.76051827 C24.7386082,6.26768816 26,9.34735769 26,13 C26,16.6526423 24.7617921,19.6935143 22.2853763,22.1230892 C19.6542437,24.7078541 16.5518634,26 12.9768161,26 C9.44813656,26 6.39922114,24.7154244 3.83054302,22.1462731 C1.27700539,19.5927355 0,16.5442932 0,13 C0,9.44056631 1.27700539,6.36042364 3.83054302,3.76051827 C6.33771291,1.25382152 9.38615519,0 12.9768161,0 Z M2.93851881,9.45454545 C2.55542015,10.5275354 2.36363636,11.7017867 2.36363636,12.976824 C2.36363636,15.8691904 3.4060211,18.3726752 5.4921973,20.4877537 C7.59337859,22.5866685 10.0781275,23.6363636 12.9464439,23.6363636 C15.8452394,23.6363636 18.3449934,22.5714556 20.4466436,20.4406886 C21.1978358,19.7099905 21.7886612,18.9479157 22.2181818,18.1549395 L17.3635668,15.9623698 C17.1947596,16.7867228 16.7844642,17.458946 16.1331495,17.9799903 C15.4808971,18.5010346 14.7100107,18.80054 13.8204903,18.8780311 L13.8204903,20.8837664 L12.3251394,20.8837664 L12.3251394,18.8780311 C10.8987182,18.8628181 9.59515117,18.3412984 8.41443828,17.3153736 L10.1855076,15.4959971 C11.0290749,16.2889733 11.987525,16.6854614 13.0613266,16.6854614 C13.5063213,16.6854614 13.8856686,16.5846755 14.2003066,16.3821528 C14.5144756,16.1801055 14.6720291,15.8458955 14.6720291,15.3790474 C14.6720291,15.0524439 14.5571464,14.7885939 14.326912,14.5860712 L13.0847721,14.049814 L11.5659758,13.3500172 L9.518719,12.4400913 L2.93851881,9.45454545 Z M13.1061693,2.36363636 C10.1782777,2.36363636 7.70306576,3.39065576 5.68006506,5.44469455 C5.17396343,5.94657585 4.69879022,6.51729723 4.25454545,7.15639354 L9.17450941,9.34718219 C9.38913399,8.67785207 9.79542114,8.14155073 10.3933708,7.73827817 C10.9908519,7.33547074 11.6881475,7.11081025 12.4852576,7.06522696 L12.4852576,5.10235475 L13.9796633,5.10235475 L13.9796633,7.06522696 C15.1600985,7.12615972 16.2332214,7.52152498 17.199032,8.25178786 L15.5204616,9.96348686 C14.7997354,9.46114041 14.0640135,9.21043233 13.3132961,9.21043233 C12.9145068,9.21043233 12.5578926,9.28671456 12.2439221,9.43834877 C11.9299516,9.59091324 11.7729664,9.8490635 11.7729664,10.2141949 C11.7729664,10.3211761 11.810924,10.4276922 11.8877765,10.5337431 L13.5199543,11.264006 L14.646499,11.7663524 L16.7158924,12.6789485 L23.3144268,15.6 C23.5290513,14.7027534 23.6363636,13.7896923 23.6363636,12.8617468 C23.6363636,9.92534574 22.6091648,7.45315005 20.5557042,5.44469455 C18.5167707,3.39065576 16.0335924,2.36363636 13.1061693,2.36363636 Z" id="path-1"></path>
    </defs>
    <g id="Symbols" stroke="none" stroke-width="1" fill="none" fill-rule="evenodd">
        <g id="Elements/Icons/Creative-Common-License/NC-Copy">
            <g id="Tint/Blauw" transform="translate(2.000000, 2.000000)">
                <mask id="mask-2" fill="white">
                    <use xlink:href="#path-1"></use>
                </mask>
                <use id="Mask" fill="#353535" xlink:href="#path-1"></use>
                <g mask="url(#mask-2)" fill="#353535" id="Rectangle-8">
                    <g transform="translate(-111.000000, -111.000000)">
                        <rect x="0" y="0" width="250" height="250"></rect>
                    </g>
                </g>
            </g>
        </g>
    </g>
</svg>
