<svg version="1.1" id="Слой_1" xmlns="http://www.w3.org/2000/svg" xmlns:xlink="http://www.w3.org/1999/xlink" x="0px" y="0px"
	 viewBox="0 0 30 30" style="enable-background:new 0 0 30 30;" xml:space="preserve">
<path  fill="#353535" d="M15,2c3.7,0,6.7,1.3,9.2,3.8C26.7,8.3,28,11.3,28,15s-1.2,6.7-3.7,9.1C21.7,26.7,18.6,28,15,28
	c-3.5,0-6.6-1.3-9.1-3.9C3.3,21.6,2,18.5,2,15c0-3.6,1.3-6.6,3.8-9.2C8.3,3.3,11.4,2,15,2z M4.9,11.5c-0.4,1.1-0.6,2.2-0.6,3.5
	c0,2.9,1,5.4,3.1,7.5c2.1,2.1,4.6,3.1,7.5,3.1c2.9,0,5.4-1.1,7.5-3.2c0.8-0.7,1.3-1.5,1.8-2.3L19.4,18c-0.2,0.8-0.6,1.5-1.2,2
	c-0.7,0.5-1.4,0.8-2.3,0.9v2h-1.5v-2c-1.4,0-2.7-0.5-3.9-1.6l1.8-1.8c0.8,0.8,1.8,1.2,2.9,1.2c0.4,0,0.8-0.1,1.1-0.3
	c0.3-0.2,0.5-0.5,0.5-1c0-0.3-0.1-0.6-0.3-0.8L15.1,16l-1.5-0.7l-2-0.9L4.9,11.5z M15.1,4.4c-2.9,0-5.4,1-7.4,3.1
	c-0.5,0.5-1,1.1-1.4,1.7l4.9,2.2c0.2-0.7,0.6-1.2,1.2-1.6c0.6-0.4,1.3-0.6,2.1-0.7v-2H16v2c1.2,0.1,2.3,0.5,3.2,1.2L17.5,12
	c-0.7-0.5-1.5-0.8-2.2-0.8c-0.4,0-0.8,0.1-1.1,0.2c-0.3,0.2-0.5,0.4-0.5,0.8c0,0.1,0,0.2,0.1,0.3l1.6,0.7l1.1,0.5l2.1,0.9l6.6,2.9
	c0.2-0.9,0.3-1.8,0.3-2.7c0-2.9-1-5.4-3.1-7.4C20.5,5.4,18,4.4,15.1,4.4z"/>
</svg>
