<svg version="1.1" id="Слой_1" xmlns="http://www.w3.org/2000/svg" xmlns:xlink="http://www.w3.org/1999/xlink" x="0px" y="0px"
	 viewBox="0 0 30 30" style="enable-background:new 0 0 30 30;" xml:space="preserve">
<path  fill="#353535" d="M14.7,2.5c3.6,0,6.6,1.2,9.1,3.7c2.5,2.5,3.7,5.5,3.7,9c0,3.6-1.2,6.6-3.6,9
	c-2.6,2.5-5.6,3.8-9.1,3.8c-3.4,0-6.4-1.3-9-3.8c-2.5-2.5-3.8-5.5-3.8-9c0-3.5,1.3-6.5,3.8-9C8.2,3.7,11.2,2.5,14.7,2.5z M14.8,4.8
	c-2.9,0-5.4,1-7.4,3.1c-2.1,2.1-3.1,4.6-3.1,7.4c0,2.8,1,5.3,3.1,7.3c2.1,2.1,4.5,3.1,7.4,3.1c2.8,0,5.3-1,7.4-3.1
	c2-1.9,3-4.4,3-7.3c0-2.9-1-5.4-3.1-7.4C20.1,5.8,17.7,4.8,14.8,4.8z M10.3,14.4v-2.2h9.3v2.2H10.3z M10.3,18.5v-2.2h9.3v2.2H10.3z"
	/>
</svg>
