<?xml version="1.0" encoding="UTF-8"?>
<svg width="30px" height="30px" viewBox="0 0 30 30" version="1.1" xmlns="http://www.w3.org/2000/svg" xmlns:xlink="http://www.w3.org/1999/xlink">
    <!-- Generator: sketchtool 52.4 (67378) - http://www.bohemiancoding.com/sketch -->
    <title>EF8AC2A9-F3CD-49DB-8905-92CED0D6DC62</title>
    <desc>Created with sketchtool.</desc>
    <defs>
        <path d="M12.7339643,0.487035714 C16.3024643,0.487035714 19.3245,1.72482143 21.8000714,4.20039286 C24.2756429,6.66064286 25.5134286,9.67525 25.5134286,13.24375 C25.5134286,16.8127143 24.2983929,19.8041071 21.8683214,22.2188571 C19.3022143,24.7399286 16.2569643,26 12.7339643,26 C9.28617857,26 6.29478571,24.7473571 3.75885714,22.2416071 C1.25310714,19.7358571 0,16.7370357 0,13.24375 C0,9.76625 1.25310714,6.75164286 3.75885714,4.20039286 C6.23396429,1.72482143 9.22582143,0.487035714 12.7339643,0.487035714 Z M12.7794643,2.78803571 C9.87860714,2.78803571 7.42625,3.81271429 5.42192857,5.863 C3.341,7.97410714 2.301,10.4343571 2.301,13.24375 C2.301,16.0837857 3.33310714,18.5287143 5.39871429,20.579 C7.46432143,22.6441429 9.92410714,23.6767143 12.7794643,23.6767143 C15.6190357,23.6767143 18.0946071,22.6367143 20.2057143,20.5557857 C22.2105,18.6122857 23.2124286,16.1747857 23.2124286,13.24375 C23.2124286,10.3280357 22.1947143,7.86778571 20.1602143,5.863 C18.1401071,3.81271429 15.6798571,2.78803571 12.7794643,2.78803571 Z M8.31442857,12.4233571 L8.31442857,10.2365714 L17.58575,10.2365714 L17.58575,12.4233571 L8.31442857,12.4233571 Z M8.31442857,16.5239286 L8.31442857,14.3371429 L17.58575,14.3371429 L17.58575,16.5239286 L8.31442857,16.5239286 Z" id="path-1"></path>
    </defs>
    <g id="Symbols" stroke="none" stroke-width="1" fill="none" fill-rule="evenodd">
        <g id="Elements/Icons/Creative-Common-License/ND-Copy">
            <g id="Tint/Blauw" transform="translate(2.000000, 2.000000)">
                <mask id="mask-2" fill="white">
                    <use xlink:href="#path-1"></use>
                </mask>
                <use id="Mask" fill="#353535" xlink:href="#path-1"></use>
                <g mask="url(#mask-2)" fill="#353535" id="Rectangle-8">
                    <g transform="translate(-115.000000, -114.000000)">
                        <rect x="0" y="0" width="250" height="250"></rect>
                    </g>
                </g>
            </g>
        </g>
    </g>
</svg>
