<svg xmlns="http://www.w3.org/2000/svg" xmlns:xlink="http://www.w3.org/1999/xlink" width="30" height="30" viewBox="0 0 30 30">
    <defs>
        <path id="a" d="M.688 17.551V7.556a3.75 3.75 0 0 1 3.75-3.75h6.29c.334 0 .653.132.888.368l.009.008a1.25 1.25 0 0 1 0 1.775l-5.509 5.5a3.258 3.258 0 0 0-.305 4.375 3.125 3.125 0 0 0 4.585.183l5.65-5.643a1.25 1.25 0 0 1 1.774 0c.236.236.368.555.367.888v6.291a3.75 3.75 0 0 1-3.75 3.75h-10a3.75 3.75 0 0 1-3.75-3.75zM17.154 6.614l-8.084 8.072a1.25 1.25 0 0 1-1.767-1.77l8.087-8.07a.311.311 0 0 0 0-.442L12.75 1.763a.625.625 0 0 1 .443-1.067h7.5c.345 0 .624.28.624.625v7.5a.625.625 0 0 1-1.067.441l-2.654-2.648a.313.313 0 0 0-.441 0z"/>
    </defs>
    <g fill="none" fill-rule="evenodd" transform="translate(5 4)">
        <mask id="b" fill="#fff">
            <use xlink:href="#a"/>
        </mask>
        <use fill="#000" fill-rule="nonzero" xlink:href="#a"/>
        <g fill="#000" mask="url(#b)">
            <path d="M-115-112h250v250h-250z"/>
        </g>
    </g>
</svg>
