<svg xmlns="http://www.w3.org/2000/svg" xmlns:xlink="http://www.w3.org/1999/xlink" width="30" height="30" viewBox="0 0 30 30">
    <defs>
        <path id="a" d="M18.915 8.605h-7.52v-7.52C11.395.743 10.93 0 10 0c-.93 0-1.395.743-1.395 1.085v7.52h-7.52C.743 8.605 0 9.07 0 10c0 .93.743 1.395 1.085 1.395h7.52v7.52C8.605 19.257 9.07 20 10 20c.93 0 1.395-.743 1.395-1.085v-7.52h7.52C19.257 11.395 20 10.93 20 10c0-.93-.743-1.395-1.085-1.395z"/>
    </defs>
    <g fill="none" fill-rule="evenodd" transform="translate(5 5)">
        <mask id="b" fill="#fff">
            <use xlink:href="#a"/>
        </mask>
        <use fill="#0077C8" fill-rule="nonzero" xlink:href="#a"/>
        <g fill="#0077C8" mask="url(#b)">
            <path d="M-114-115h250v250h-250z"/>
        </g>
    </g>
</svg>
