<?xml version="1.0" encoding="UTF-8"?>
<svg width="30px" height="30px" viewBox="0 0 30 30" version="1.1" xmlns="http://www.w3.org/2000/svg" xmlns:xlink="http://www.w3.org/1999/xlink">
    <!-- Generator: sketchtool 52.4 (67378) - http://www.bohemiancoding.com/sketch -->
    <title>1D157FCC-F60C-4EB4-9E88-08B51D5796CE</title>
    <desc>Created with sketchtool.</desc>
    <defs>
        <path d="M12.7339643,0.487035714 C16.3024643,0.487035714 19.3245,1.72482143 21.8000714,4.20039286 C24.2756429,6.66064286 25.5134286,9.67525 25.5134286,13.24375 C25.5134286,16.8127143 24.2983929,19.8041071 21.8683214,22.2188571 C19.3022143,24.7399286 16.2569643,26 12.7339643,26 C9.28617857,26 6.29478571,24.7473571 3.75885714,22.2416071 C1.25310714,19.7358571 0,16.7370357 0,13.24375 C0,9.76625 1.25310714,6.75164286 3.75885714,4.20039286 C6.23396429,1.72482143 9.22582143,0.487035714 12.7339643,0.487035714 Z M12.7794643,2.78803571 C9.87860714,2.78803571 7.42625,3.81271429 5.42192857,5.863 C3.341,7.97410714 2.301,10.4343571 2.301,13.24375 C2.301,16.0837857 3.33310714,18.5287143 5.39871429,20.579 C7.46432143,22.6441429 9.92410714,23.6767143 12.7794643,23.6767143 C15.6190357,23.6767143 18.0946071,22.6367143 20.2057143,20.5557857 C22.2105,18.6122857 23.2124286,16.1747857 23.2124286,13.24375 C23.2124286,10.3280357 22.1947143,7.86778571 20.1602143,5.863 C18.1401071,3.81271429 15.6798571,2.78803571 12.7794643,2.78803571 Z M7.08453571,11.4441786 C7.32735714,9.88 7.95785714,8.66867857 8.97510714,7.81067857 C9.99235714,6.95314286 11.2306071,6.52367857 12.6884643,6.52367857 C14.6927857,6.52367857 16.2876071,7.1695 17.472,8.46021429 C18.6563929,9.75092857 19.2488214,11.4065714 19.2488214,13.4262143 C19.2488214,15.3850357 18.6341071,17.01375 17.40375,18.3123571 C16.1738571,19.6105 14.5790357,20.2600357 12.6202143,20.2600357 C11.1772143,20.2600357 9.932,19.8273214 8.88410714,18.9614286 C7.83621429,18.096 7.20617857,16.8656429 6.99353571,15.2712857 L10.2054643,15.2712857 C10.2811429,16.8201429 11.2152857,17.5945714 13.0074286,17.5945714 C13.9030357,17.5945714 14.6245357,17.2073571 15.1714643,16.4329286 C15.7179286,15.6585 15.9913929,14.6259286 15.9913929,13.33475 C15.9913929,11.9832143 15.7411429,10.9543571 15.2397143,10.2481786 C14.7382857,9.542 14.01725,9.18867857 13.0756786,9.18867857 C11.3745357,9.18867857 10.4181071,9.94082143 10.2054643,11.4441786 L11.1396071,11.4441786 L8.61064286,13.9726786 L6.08214286,11.4441786 L7.08453571,11.4441786 Z" id="path-1"></path>
    </defs>
    <g id="Symbols" stroke="none" stroke-width="1" fill="none" fill-rule="evenodd">
        <g id="Elements/Icons/Creative-Common-License/SA-Copy">
            <g id="Path-+-Tint/Blauw-Mask" transform="translate(2.000000, 2.000000)">
                <mask id="mask-2" fill="white">
                    <use xlink:href="#path-1"></use>
                </mask>
                <use id="Mask" fill="#686d75" xlink:href="#path-1"></use>
                <g id="Tint/Blauw" mask="url(#mask-2)" fill="#353535">
                    <g transform="translate(-131.000000, -148.000000)" id="Rectangle-8">
                        <rect x="0" y="0" width="250" height="250"></rect>
                    </g>
                </g>
            </g>
        </g>
    </g>
</svg>
