<svg version="1.1" xmlns="http://www.w3.org/2000/svg" x="0px" y="0px"
	 viewBox="0 0 30 30" style="enable-background:new 0 0 30 30;" xml:space="preserve">
<path fill="#0077C8" d="M22.5,12h-15C7.2,12,7,12.2,7,12.5V25c0,1.1,0.9,2,2,2h12c1.1,0,2-0.9,2-2V12.5
	C23,12.2,22.8,12,22.5,12z M13.3,23.5c0,0.4-0.3,0.8-0.8,0.8s-0.8-0.3-0.8-0.8v-8.6c0-0.4,0.3-0.8,0.8-0.8s0.8,0.3,0.8,0.8V23.5z
	 M18.3,23.5c0,0.4-0.3,0.8-0.8,0.8s-0.8-0.3-0.8-0.8v-8.6c0-0.4,0.3-0.8,0.8-0.8s0.8,0.3,0.8,0.8V23.5z M23.9,7.9
	C24.6,8.2,25,8.8,25,9.5c0,0.5-0.5,1-1,1H6c-0.3,0-0.5-0.1-0.7-0.3C5.1,10,5,9.7,5,9.5c0-0.7,0.5-1.4,1.2-1.7c1.3-0.6,2.6-0.9,4-1
	C10.7,4.6,12.7,3,15,3s4.3,1.6,4.8,3.8C21.2,6.9,22.6,7.2,23.9,7.9z M15,5c-1.1,0-2.1,0.6-2.6,1.6c1.7-0.1,3.5-0.1,5.2,0
	C17.1,5.6,16.1,5,15,5z"/>
</svg>
