<svg width="430" height="63" viewBox="0 0 430 63" fill="none" xmlns="http://www.w3.org/2000/svg">
<path fill-rule="evenodd" clip-rule="evenodd" d="M3.24076 63H0.983398C2.99767 39.4013 22.7911 20.8757 46.9114 20.8757H163V23.1244H46.9114C24.0338 23.1244 5.24826 40.6449 3.24076 63Z" fill="#EA7600"/>
<rect x="270" width="160" height="38.8889" rx="9" fill="black"/>
<path d="M290.333 24.0557C290.648 24.0557 290.898 24.176 291.083 24.4168C291.287 24.6575 291.389 24.9816 291.389 25.389C291.389 25.9631 291.046 26.4446 290.361 26.8334C289.731 27.1853 289.018 27.4723 288.222 27.6946C287.426 27.8983 286.666 28.0001 285.944 28.0001C283.759 28.0001 282.027 27.3705 280.75 26.1112C279.472 24.852 278.833 23.1297 278.833 20.9446C278.833 19.5557 279.111 18.3242 279.666 17.2501C280.222 16.176 281 15.3427 282 14.7501C283.018 14.1575 284.166 13.8612 285.444 13.8612C286.666 13.8612 287.731 14.1297 288.639 14.6668C289.546 15.2038 290.25 15.9631 290.75 16.9446C291.25 17.926 291.5 19.0834 291.5 20.4168C291.5 21.2131 291.148 21.6112 290.444 21.6112H282.25C282.361 22.889 282.722 23.8334 283.333 24.4446C283.944 25.0371 284.833 25.3334 286 25.3334C286.592 25.3334 287.111 25.2594 287.555 25.1112C288.018 24.9631 288.537 24.7594 289.111 24.5001C289.666 24.2038 290.074 24.0557 290.333 24.0557ZM285.527 16.3057C284.583 16.3057 283.824 16.602 283.25 17.1946C282.694 17.7871 282.361 18.639 282.25 19.7501H288.527C288.49 18.6205 288.213 17.7686 287.694 17.1946C287.176 16.602 286.453 16.3057 285.527 16.3057Z" fill="white"/>
<path d="M305.673 8.05566C306.192 8.05566 306.618 8.20381 306.951 8.50011C307.284 8.79641 307.451 9.18529 307.451 9.66678V26.2779C307.451 26.7779 307.294 27.176 306.979 27.4723C306.664 27.7686 306.247 27.9168 305.729 27.9168C305.21 27.9168 304.794 27.7686 304.479 27.4723C304.164 27.176 304.007 26.7779 304.007 26.2779V25.5834C303.599 26.3427 303.007 26.9353 302.229 27.3612C301.47 27.7871 300.599 28.0001 299.618 28.0001C298.451 28.0001 297.405 27.7038 296.479 27.1112C295.571 26.5186 294.858 25.6853 294.34 24.6112C293.84 23.5186 293.59 22.2686 293.59 20.8612C293.59 19.4538 293.84 18.2223 294.34 17.1668C294.858 16.1112 295.571 15.2964 296.479 14.7223C297.386 14.1483 298.433 13.8612 299.618 13.8612C300.599 13.8612 301.47 14.0649 302.229 14.4723C302.988 14.8797 303.571 15.4538 303.979 16.1946V9.61122C303.979 9.14826 304.127 8.77789 304.423 8.50011C304.738 8.20381 305.155 8.05566 305.673 8.05566ZM300.534 25.3057C301.646 25.3057 302.497 24.926 303.09 24.1668C303.701 23.4075 304.007 22.3242 304.007 20.9168C304.007 19.5094 303.701 18.4353 303.09 17.6946C302.497 16.9353 301.655 16.5557 300.562 16.5557C299.451 16.5557 298.59 16.926 297.979 17.6668C297.368 18.4075 297.062 19.4723 297.062 20.8612C297.062 22.2686 297.368 23.3612 297.979 24.139C298.59 24.9168 299.442 25.3057 300.534 25.3057Z" fill="white"/>
<path d="M321.745 13.9168C322.282 13.9168 322.708 14.0649 323.023 14.3612C323.338 14.6575 323.495 15.0557 323.495 15.5557V26.3334C323.495 26.8149 323.328 27.2038 322.995 27.5001C322.68 27.7964 322.264 27.9446 321.745 27.9446C321.245 27.9446 320.847 27.8057 320.551 27.5279C320.254 27.2501 320.106 26.8705 320.106 26.389V25.6946C319.68 26.4353 319.106 27.0094 318.384 27.4168C317.662 27.8057 316.847 28.0001 315.94 28.0001C312.606 28.0001 310.94 26.1297 310.94 22.389V15.5557C310.94 15.0557 311.097 14.6575 311.412 14.3612C311.727 14.0649 312.143 13.9168 312.662 13.9168C313.199 13.9168 313.625 14.0649 313.94 14.3612C314.254 14.6575 314.412 15.0557 314.412 15.5557V22.4168C314.412 23.3797 314.606 24.0927 314.995 24.5557C315.384 25.0186 315.995 25.2501 316.828 25.2501C317.791 25.2501 318.56 24.9353 319.134 24.3057C319.727 23.6575 320.023 22.8057 320.023 21.7501V15.5557C320.023 15.0557 320.18 14.6575 320.495 14.3612C320.81 14.0649 321.227 13.9168 321.745 13.9168Z" fill="white"/>
<path d="M332.026 28.0001C330.007 28.0001 328.378 27.602 327.137 26.8057C326.544 26.4538 326.248 25.9538 326.248 25.3057C326.248 24.9353 326.35 24.639 326.553 24.4168C326.757 24.176 327.007 24.0557 327.303 24.0557C327.618 24.0557 328.053 24.2038 328.609 24.5001C329.202 24.7779 329.739 24.9909 330.22 25.139C330.72 25.2871 331.35 25.3612 332.109 25.3612C332.887 25.3612 333.489 25.2316 333.915 24.9723C334.359 24.7131 334.581 24.352 334.581 23.889C334.581 23.5742 334.489 23.3242 334.303 23.139C334.137 22.9538 333.822 22.7871 333.359 22.639C332.915 22.4723 332.229 22.2871 331.303 22.0834C329.655 21.7501 328.47 21.2779 327.748 20.6668C327.044 20.0557 326.692 19.2131 326.692 18.139C326.692 17.3242 326.933 16.5927 327.415 15.9446C327.896 15.2779 328.553 14.7686 329.387 14.4168C330.239 14.0464 331.202 13.8612 332.276 13.8612C333.053 13.8612 333.803 13.9631 334.526 14.1668C335.248 14.352 335.896 14.6297 336.47 15.0001C337.063 15.3705 337.359 15.8612 337.359 16.4723C337.359 16.8427 337.257 17.1575 337.053 17.4168C336.85 17.6575 336.6 17.7779 336.303 17.7779C336.1 17.7779 335.896 17.7409 335.692 17.6668C335.507 17.5742 335.266 17.4446 334.97 17.2779C334.433 17.0001 333.97 16.7964 333.581 16.6668C333.192 16.5186 332.711 16.4446 332.137 16.4446C331.452 16.4446 330.905 16.5834 330.498 16.8612C330.109 17.139 329.915 17.5186 329.915 18.0001C329.915 18.4631 330.118 18.8149 330.526 19.0557C330.933 19.2964 331.72 19.5371 332.887 19.7779C334.128 20.0371 335.1 20.3334 335.803 20.6668C336.507 21.0001 337.007 21.4168 337.303 21.9168C337.618 22.4168 337.776 23.0557 337.776 23.8334C337.776 25.0927 337.248 26.102 336.192 26.8612C335.155 27.6205 333.766 28.0001 332.026 28.0001Z" fill="#38BB67"/>
<path d="M346.785 28.0001C345.397 28.0001 344.174 27.7131 343.119 27.139C342.082 26.5649 341.276 25.7408 340.702 24.6668C340.128 23.5927 339.841 22.3427 339.841 20.9168C339.841 19.4909 340.128 18.2501 340.702 17.1946C341.276 16.1205 342.082 15.2964 343.119 14.7223C344.174 14.1483 345.397 13.8612 346.785 13.8612C348.174 13.8612 349.387 14.1483 350.424 14.7223C351.48 15.2964 352.285 16.1205 352.841 17.1946C353.415 18.2501 353.702 19.4909 353.702 20.9168C353.702 22.3427 353.415 23.5927 352.841 24.6668C352.285 25.7408 351.48 26.5649 350.424 27.139C349.387 27.7131 348.174 28.0001 346.785 28.0001ZM346.758 25.3057C347.887 25.3057 348.748 24.9353 349.341 24.1946C349.934 23.4538 350.23 22.3612 350.23 20.9168C350.23 19.4909 349.934 18.4075 349.341 17.6668C348.748 16.9075 347.897 16.5279 346.785 16.5279C345.674 16.5279 344.813 16.9075 344.202 17.6668C343.61 18.4075 343.313 19.4909 343.313 20.9168C343.313 22.3612 343.61 23.4538 344.202 24.1946C344.795 24.9353 345.647 25.3057 346.758 25.3057Z" fill="#38BB67"/>
<path d="M367.291 13.9168C367.828 13.9168 368.254 14.0649 368.569 14.3612C368.883 14.6575 369.041 15.0557 369.041 15.5557V26.3334C369.041 26.8149 368.874 27.2038 368.541 27.5001C368.226 27.7964 367.809 27.9446 367.291 27.9446C366.791 27.9446 366.393 27.8057 366.096 27.5279C365.8 27.2501 365.652 26.8705 365.652 26.389V25.6946C365.226 26.4353 364.652 27.0094 363.93 27.4168C363.208 27.8057 362.393 28.0001 361.485 28.0001C358.152 28.0001 356.485 26.1297 356.485 22.389V15.5557C356.485 15.0557 356.643 14.6575 356.958 14.3612C357.272 14.0649 357.689 13.9168 358.208 13.9168C358.745 13.9168 359.171 14.0649 359.485 14.3612C359.8 14.6575 359.958 15.0557 359.958 15.5557V22.4168C359.958 23.3797 360.152 24.0927 360.541 24.5557C360.93 25.0186 361.541 25.2501 362.374 25.2501C363.337 25.2501 364.106 24.9353 364.68 24.3057C365.272 23.6575 365.569 22.8057 365.569 21.7501V15.5557C365.569 15.0557 365.726 14.6575 366.041 14.3612C366.356 14.0649 366.772 13.9168 367.291 13.9168Z" fill="#38BB67"/>
<path d="M380.238 13.9168C380.72 13.8797 381.099 13.9816 381.377 14.2223C381.655 14.4631 381.794 14.8242 381.794 15.3057C381.794 15.8057 381.673 16.176 381.433 16.4168C381.192 16.6575 380.757 16.8149 380.127 16.889L379.294 16.9723C378.201 17.0834 377.396 17.4538 376.877 18.0834C376.377 18.7131 376.127 19.5001 376.127 20.4446V26.2779C376.127 26.8149 375.96 27.2316 375.627 27.5279C375.294 27.8057 374.877 27.9446 374.377 27.9446C373.877 27.9446 373.46 27.8057 373.127 27.5279C372.812 27.2316 372.655 26.8149 372.655 26.2779V15.5279C372.655 15.0094 372.812 14.6112 373.127 14.3334C373.46 14.0557 373.868 13.9168 374.349 13.9168C374.831 13.9168 375.22 14.0557 375.516 14.3334C375.812 14.5927 375.96 14.9723 375.96 15.4723V16.5834C376.312 15.7686 376.831 15.139 377.516 14.6946C378.22 14.2501 378.997 14.0001 379.849 13.9446L380.238 13.9168Z" fill="#38BB67"/>
<path d="M389.045 28.0001C387.693 28.0001 386.499 27.7131 385.462 27.139C384.443 26.5649 383.656 25.7501 383.101 24.6946C382.545 23.639 382.267 22.4075 382.267 21.0001C382.267 19.5927 382.554 18.352 383.128 17.2779C383.721 16.1853 384.545 15.3427 385.601 14.7501C386.656 14.1575 387.869 13.8612 389.239 13.8612C389.962 13.8612 390.684 13.9631 391.406 14.1668C392.147 14.3705 392.795 14.6483 393.351 15.0001C393.943 15.389 394.239 15.8797 394.239 16.4723C394.239 16.8797 394.138 17.2131 393.934 17.4723C393.749 17.7131 393.499 17.8334 393.184 17.8334C392.98 17.8334 392.767 17.7871 392.545 17.6946C392.323 17.602 392.101 17.4908 391.878 17.3612C391.471 17.1205 391.082 16.9353 390.712 16.8057C390.341 16.6575 389.915 16.5834 389.434 16.5834C388.286 16.5834 387.397 16.9631 386.767 17.7223C386.156 18.4631 385.851 19.5371 385.851 20.9446C385.851 22.3334 386.156 23.4075 386.767 24.1668C387.397 24.9075 388.286 25.2779 389.434 25.2779C389.897 25.2779 390.304 25.2131 390.656 25.0834C391.027 24.9353 391.434 24.7409 391.878 24.5001C392.156 24.3334 392.397 24.2131 392.601 24.139C392.804 24.0464 393.008 24.0001 393.212 24.0001C393.508 24.0001 393.758 24.1297 393.962 24.389C394.165 24.6483 394.267 24.9723 394.267 25.3612C394.267 25.676 394.193 25.9538 394.045 26.1946C393.915 26.4168 393.693 26.6205 393.378 26.8057C392.804 27.176 392.138 27.4723 391.378 27.6946C390.619 27.8983 389.841 28.0001 389.045 28.0001Z" fill="#38BB67"/>
<path d="M407.331 24.0557C407.645 24.0557 407.895 24.176 408.081 24.4168C408.284 24.6575 408.386 24.9816 408.386 25.389C408.386 25.9631 408.044 26.4446 407.358 26.8334C406.729 27.1853 406.016 27.4723 405.22 27.6946C404.423 27.8983 403.664 28.0001 402.942 28.0001C400.757 28.0001 399.025 27.3705 397.747 26.1112C396.47 24.852 395.831 23.1297 395.831 20.9446C395.831 19.5557 396.108 18.3242 396.664 17.2501C397.22 16.176 397.997 15.3427 398.997 14.7501C400.016 14.1575 401.164 13.8612 402.442 13.8612C403.664 13.8612 404.729 14.1297 405.636 14.6668C406.544 15.2038 407.247 15.9631 407.747 16.9446C408.247 17.926 408.497 19.0834 408.497 20.4168C408.497 21.2131 408.145 21.6112 407.442 21.6112H399.247C399.358 22.889 399.72 23.8334 400.331 24.4446C400.942 25.0371 401.831 25.3334 402.997 25.3334C403.59 25.3334 404.108 25.2594 404.553 25.1112C405.016 24.9631 405.534 24.7594 406.108 24.5001C406.664 24.2038 407.071 24.0557 407.331 24.0557ZM402.525 16.3057C401.581 16.3057 400.821 16.602 400.247 17.1946C399.692 17.7871 399.358 18.639 399.247 19.7501H405.525C405.488 18.6205 405.21 17.7686 404.692 17.1946C404.173 16.602 403.451 16.3057 402.525 16.3057Z" fill="#38BB67"/>
<path d="M416.254 28.0001C414.236 28.0001 412.606 27.602 411.365 26.8057C410.773 26.4538 410.476 25.9538 410.476 25.3057C410.476 24.9353 410.578 24.639 410.782 24.4168C410.986 24.176 411.236 24.0557 411.532 24.0557C411.847 24.0557 412.282 24.2038 412.838 24.5001C413.43 24.7779 413.967 24.9909 414.449 25.139C414.949 25.2871 415.578 25.3612 416.338 25.3612C417.115 25.3612 417.717 25.2316 418.143 24.9723C418.588 24.7131 418.81 24.352 418.81 23.889C418.81 23.5742 418.717 23.3242 418.532 23.139C418.365 22.9538 418.051 22.7871 417.588 22.639C417.143 22.4723 416.458 22.2871 415.532 22.0834C413.884 21.7501 412.699 21.2779 411.976 20.6668C411.273 20.0557 410.921 19.2131 410.921 18.139C410.921 17.3242 411.162 16.5927 411.643 15.9446C412.125 15.2779 412.782 14.7686 413.615 14.4168C414.467 14.0464 415.43 13.8612 416.504 13.8612C417.282 13.8612 418.032 13.9631 418.754 14.1668C419.476 14.352 420.125 14.6297 420.699 15.0001C421.291 15.3705 421.588 15.8612 421.588 16.4723C421.588 16.8427 421.486 17.1575 421.282 17.4168C421.078 17.6575 420.828 17.7779 420.532 17.7779C420.328 17.7779 420.125 17.7409 419.921 17.6668C419.736 17.5742 419.495 17.4446 419.199 17.2779C418.662 17.0001 418.199 16.7964 417.81 16.6668C417.421 16.5186 416.939 16.4446 416.365 16.4446C415.68 16.4446 415.134 16.5834 414.726 16.8612C414.338 17.139 414.143 17.5186 414.143 18.0001C414.143 18.4631 414.347 18.8149 414.754 19.0557C415.162 19.2964 415.949 19.5371 417.115 19.7779C418.356 20.0371 419.328 20.3334 420.032 20.6668C420.736 21.0001 421.236 21.4168 421.532 21.9168C421.847 22.4168 422.004 23.0557 422.004 23.8334C422.004 25.0927 421.476 26.102 420.421 26.8612C419.384 27.6205 417.995 28.0001 416.254 28.0001Z" fill="#38BB67"/>
<path d="M176.44 25V14.504H179.432C180.221 14.504 180.909 14.6 181.496 14.792C182.083 14.984 182.541 15.3093 182.872 15.768C183.203 16.216 183.368 16.824 183.368 17.592C183.368 18.6907 183.011 19.5067 182.296 20.04C181.581 20.5733 180.648 20.84 179.496 20.84H177.768V25H176.44ZM177.768 19.752H179.336C180.253 19.752 180.931 19.5813 181.368 19.24C181.816 18.888 182.04 18.3387 182.04 17.592C182.04 16.8347 181.805 16.312 181.336 16.024C180.877 15.7253 180.189 15.576 179.272 15.576H177.768V19.752ZM188.008 25.192C187.379 25.192 186.787 25.032 186.232 24.712C185.688 24.392 185.245 23.928 184.904 23.32C184.573 22.712 184.408 21.9813 184.408 21.128C184.408 20.2533 184.573 19.512 184.904 18.904C185.245 18.296 185.688 17.832 186.232 17.512C186.787 17.192 187.379 17.032 188.008 17.032C188.648 17.032 189.24 17.192 189.784 17.512C190.328 17.832 190.765 18.296 191.096 18.904C191.437 19.512 191.608 20.2533 191.608 21.128C191.608 21.9813 191.437 22.712 191.096 23.32C190.765 23.928 190.328 24.392 189.784 24.712C189.24 25.032 188.648 25.192 188.008 25.192ZM188.008 24.104C188.68 24.104 189.219 23.832 189.624 23.288C190.04 22.7333 190.248 22.0133 190.248 21.128C190.248 20.232 190.04 19.5067 189.624 18.952C189.219 18.3973 188.68 18.12 188.008 18.12C187.347 18.12 186.808 18.3973 186.392 18.952C185.976 19.5067 185.768 20.232 185.768 21.128C185.768 22.0133 185.976 22.7333 186.392 23.288C186.808 23.832 187.347 24.104 188.008 24.104ZM194.825 25L192.665 17.224H194.009L195.161 21.72C195.247 22.0827 195.327 22.4453 195.401 22.808C195.476 23.16 195.551 23.5173 195.625 23.88H195.689C195.775 23.5173 195.86 23.16 195.945 22.808C196.031 22.4453 196.121 22.0827 196.217 21.72L197.417 17.224H198.697L199.913 21.72C200.009 22.0827 200.1 22.4453 200.185 22.808C200.281 23.16 200.372 23.5173 200.457 23.88H200.521C200.607 23.5173 200.687 23.16 200.761 22.808C200.847 22.4453 200.927 22.0827 201.001 21.72L202.137 17.224H203.385L201.305 25H199.705L198.585 20.824C198.489 20.4507 198.399 20.0827 198.313 19.72C198.239 19.3573 198.153 18.9787 198.057 18.584H197.993C197.908 18.9787 197.823 19.3627 197.737 19.736C197.652 20.0987 197.556 20.4667 197.449 20.84L196.361 25H194.825ZM208.167 25.192C207.474 25.192 206.844 25.032 206.279 24.712C205.714 24.3813 205.266 23.912 204.935 23.304C204.604 22.696 204.439 21.9707 204.439 21.128C204.439 20.2747 204.604 19.544 204.935 18.936C205.276 18.328 205.714 17.8587 206.247 17.528C206.78 17.1973 207.34 17.032 207.927 17.032C208.919 17.032 209.682 17.3627 210.215 18.024C210.759 18.6853 211.031 19.5707 211.031 20.68C211.031 20.8187 211.026 20.9573 211.015 21.096C211.015 21.224 211.004 21.336 210.983 21.432H205.735C205.788 22.2533 206.044 22.9093 206.503 23.4C206.972 23.8907 207.58 24.136 208.327 24.136C208.7 24.136 209.042 24.0827 209.351 23.976C209.671 23.8587 209.975 23.7093 210.263 23.528L210.727 24.392C210.396 24.6053 210.018 24.792 209.591 24.952C209.175 25.112 208.7 25.192 208.167 25.192ZM205.719 20.488H209.879C209.879 19.6987 209.708 19.1013 209.367 18.696C209.036 18.28 208.567 18.072 207.959 18.072C207.415 18.072 206.924 18.2853 206.487 18.712C206.06 19.128 205.804 19.72 205.719 20.488ZM212.953 25V17.224H214.041L214.153 18.632H214.201C214.467 18.1413 214.793 17.752 215.177 17.464C215.561 17.176 215.971 17.032 216.409 17.032C216.718 17.032 216.995 17.0853 217.241 17.192L216.985 18.344C216.857 18.3013 216.739 18.2693 216.633 18.248C216.526 18.2267 216.393 18.216 216.233 18.216C215.902 18.216 215.555 18.3493 215.193 18.616C214.841 18.8827 214.531 19.3467 214.265 20.008V25H212.953ZM221.495 25.192C220.802 25.192 220.173 25.032 219.607 24.712C219.042 24.3813 218.594 23.912 218.263 23.304C217.933 22.696 217.767 21.9707 217.767 21.128C217.767 20.2747 217.933 19.544 218.263 18.936C218.605 18.328 219.042 17.8587 219.575 17.528C220.109 17.1973 220.669 17.032 221.255 17.032C222.247 17.032 223.01 17.3627 223.543 18.024C224.087 18.6853 224.359 19.5707 224.359 20.68C224.359 20.8187 224.354 20.9573 224.343 21.096C224.343 21.224 224.333 21.336 224.311 21.432H219.063C219.117 22.2533 219.373 22.9093 219.831 23.4C220.301 23.8907 220.909 24.136 221.655 24.136C222.029 24.136 222.37 24.0827 222.679 23.976C222.999 23.8587 223.303 23.7093 223.591 23.528L224.055 24.392C223.725 24.6053 223.346 24.792 222.919 24.952C222.503 25.112 222.029 25.192 221.495 25.192ZM219.047 20.488H223.207C223.207 19.6987 223.037 19.1013 222.695 18.696C222.365 18.28 221.895 18.072 221.287 18.072C220.743 18.072 220.253 18.2853 219.815 18.712C219.389 19.128 219.133 19.72 219.047 20.488ZM228.937 25.192C227.966 25.192 227.187 24.84 226.601 24.136C226.014 23.4213 225.721 22.4187 225.721 21.128C225.721 20.2853 225.875 19.56 226.185 18.952C226.505 18.3333 226.921 17.8587 227.433 17.528C227.955 17.1973 228.51 17.032 229.097 17.032C229.545 17.032 229.934 17.112 230.265 17.272C230.595 17.432 230.931 17.6507 231.273 17.928L231.209 16.6V13.608H232.537V25H231.449L231.337 24.088H231.289C230.99 24.3867 230.638 24.648 230.233 24.872C229.827 25.0853 229.395 25.192 228.937 25.192ZM229.225 24.088C229.907 24.088 230.569 23.7307 231.209 23.016V18.952C230.878 18.6533 230.558 18.4453 230.249 18.328C229.95 18.2 229.641 18.136 229.321 18.136C228.905 18.136 228.526 18.264 228.185 18.52C227.854 18.7653 227.587 19.112 227.385 19.56C227.182 19.9973 227.081 20.5147 227.081 21.112C227.081 22.04 227.267 22.7707 227.641 23.304C228.014 23.8267 228.542 24.088 229.225 24.088ZM241.799 25.192C241.436 25.192 241.058 25.1067 240.663 24.936C240.279 24.7547 239.916 24.5093 239.575 24.2H239.527L239.415 25H238.359V13.608H239.671V16.712L239.639 18.12C239.991 17.8107 240.375 17.5547 240.791 17.352C241.218 17.1387 241.644 17.032 242.071 17.032C243.084 17.032 243.852 17.3893 244.375 18.104C244.898 18.8187 245.159 19.7787 245.159 20.984C245.159 21.8693 244.999 22.6267 244.679 23.256C244.37 23.8853 243.959 24.3653 243.447 24.696C242.946 25.0267 242.396 25.192 241.799 25.192ZM241.575 24.088C242.215 24.088 242.743 23.816 243.159 23.272C243.586 22.7173 243.799 21.96 243.799 21C243.799 20.1467 243.639 19.4587 243.319 18.936C243.01 18.4027 242.487 18.136 241.751 18.136C241.42 18.136 241.084 18.2267 240.743 18.408C240.402 18.5893 240.044 18.8507 239.671 19.192V23.272C240.012 23.5707 240.348 23.784 240.679 23.912C241.02 24.0293 241.319 24.088 241.575 24.088ZM247.268 28.344C247.097 28.344 246.932 28.328 246.772 28.296C246.623 28.264 246.484 28.2267 246.356 28.184L246.612 27.144C246.697 27.1653 246.793 27.1867 246.9 27.208C247.007 27.24 247.108 27.256 247.204 27.256C247.641 27.256 248.004 27.096 248.292 26.776C248.58 26.4667 248.804 26.072 248.964 25.592L249.14 25.016L246.02 17.224H247.38L248.964 21.528C249.081 21.8587 249.204 22.216 249.332 22.6C249.471 22.984 249.599 23.3573 249.716 23.72H249.78C249.897 23.368 250.009 23 250.116 22.616C250.223 22.232 250.329 21.8693 250.436 21.528L251.828 17.224H253.108L250.18 25.64C249.999 26.152 249.78 26.6107 249.524 27.016C249.279 27.4213 248.969 27.7413 248.596 27.976C248.233 28.2213 247.791 28.344 247.268 28.344Z" fill="#686D75"/>
</svg>
