<svg version="1.1" id="Слой_1" xmlns="http://www.w3.org/2000/svg" xmlns:xlink="http://www.w3.org/1999/xlink" x="0px" y="0px"
	 viewBox="0 0 30 30" style="enable-background:new 0 0 30 30;" xml:space="preserve">
<path fill="#2CA055" d="M11.2,25.8l12.5-10.5c0.2-0.2,0.3-0.5,0.3-0.7c0-0.3-0.1-0.5-0.3-0.7L11.2,3.2c-0.4-0.4-1-0.3-1.4,0.1L8.2,5.1
	c-0.4,0.4-0.3,1,0.1,1.4c0,0,0,0,0,0l9.5,7.8c0.1,0,0.1,0.1,0.1,0.2c0,0.1,0,0.1-0.1,0.2l-9.5,7.8c-0.4,0.3-0.5,1-0.1,1.4
	c0,0,0,0,0,0l1.6,1.8c0.2,0.2,0.4,0.3,0.7,0.3C10.7,26.1,11,26,11.2,25.8L11.2,25.8z"/>
</svg>
