<?xml version="1.0" encoding="utf-8"?>
<!-- Generator: Adobe Illustrator 21.1.0, SVG Export Plug-In . SVG Version: 6.00 Build 0)  -->
<svg version="1.1" id="Слой_1" xmlns="http://www.w3.org/2000/svg" xmlns:xlink="http://www.w3.org/1999/xlink" x="0px" y="0px"
	 viewBox="0 0 63 58" style="enable-background:new 0 0 63 58;" xml:space="preserve">
<style type="text/css">
	.st0{fill:#009F4D;}
</style>
<path class="st0" d="M62.3,37c-3.8-0.2-7-1.1-9.5-2.7c-2.8-1.8-4.9-4.4-6.1-7.9v-8.7V9c0-2.2-0.9-4.2-2.3-5.7S40.9,1,38.7,1h-15h-15
	C6.5,1,4.5,1.9,3.1,3.3S0.7,6.8,0.7,9v10v10c0,2.2,0.9,4.2,2.3,5.7C4.5,36.1,6.5,37,8.7,37h8.1H25c0.4,0.1,0.9,0.1,1.4,0.1
	s1.1,0,1.8,0c5.6,0,10,1.5,13.1,4.5S46.2,49,46.7,55c0,0,0,0.3,0,0.7s0,0.9,0,1.3L62.3,37z"/>
</svg>
