<svg xmlns="http://www.w3.org/2000/svg" viewBox="0 0 30 30" preserveAspectRatio="xMinYMid"><path fill="#353535" d="M14.7 2.5c3.6 0 6.6 1.2 9.1 3.7s3.7 5.5 3.7 9.1c0 3.6-1.2 6.6-3.6 9-2.6 2.5-5.6 3.8-9.1 3.8-3.4 0-6.4-1.3-9-3.8-2.5-2.5-3.8-5.5-3.8-9s1.3-6.5 3.8-9.1c2.4-2.5 5.4-3.7 8.9-3.7zm.1 2.3c-2.9 0-5.4 1-7.4 3.1-2.1 2.1-3.1 4.6-3.1 7.4 0 2.8 1 5.3 3.1 7.3 2.1 2.1 4.5 3.1 7.4 3.1 2.8 0 5.3-1 7.4-3.1 2-1.9 3-4.4 3-7.3 0-2.9-1-5.4-3.1-7.4-2-2.1-4.4-3.1-7.3-3.1zm3.4 7.3v5.2h-1.5v6.2h-4v-6.2h-1.5v-5.2c0-.2.1-.4.2-.6.2-.2.4-.2.6-.2h5.2c.2 0 .4.1.6.2.3.2.4.3.4.6zM13 8.8c0-1.2.6-1.8 1.8-1.8s1.8.6 1.8 1.8c0 1.2-.6 1.8-1.8 1.8S13 10 13 8.8z"/></svg>
