<svg xmlns="http://www.w3.org/2000/svg" xmlns:xlink="http://www.w3.org/1999/xlink" width="30" height="30" viewBox="0 0 30 30">
    <defs>
        <path id="a" d="M12.307 17.558l5.529-6.863a.243.243 0 0 1 .42.073 9.346 9.346 0 1 1-4.06-5.155.245.245 0 0 1 .06.361l-4.25 5.276a.24.24 0 0 1-.357.019l-1.032-1.032a2.875 2.875 0 0 0-4.171.112 2.982 2.982 0 0 0 .22 4.068l3.37 3.37a2.875 2.875 0 0 0 4.27-.23zM22.459.375c.618.498.715 1.403.217 2.02l-11.488 14.26a1.45 1.45 0 0 1-2.136.116l-3.484-3.485A1.437 1.437 0 1 1 7.6 11.254l2.352 2.354L20.437.592A1.438 1.438 0 0 1 22.46.375z"/>
    </defs>
    <g fill="none" fill-rule="evenodd" transform="translate(3 4)">
        <mask id="b" fill="#fff">
            <use xlink:href="#a"/>
        </mask>
        <g fill="#fff" mask="url(#b)">
            <path d="M-120-135h275v281h-275z"/>
        </g>
    </g>
</svg>
