<svg version="1.1" id="Слой_1" xmlns="http://www.w3.org/2000/svg" xmlns:xlink="http://www.w3.org/1999/xlink" x="0px" y="0px"
	 viewBox="0 0 30 30" style="enable-background:new 0 0 30 30;" xml:space="preserve">
<path fill="#050E1D" d="M26.9,9.4c0.4,0.2,0.6,0.5,0.6,0.9c0,0.4-0.2,0.8-0.6,1l-11.2,6c-0.2,0.1-0.3,0.1-0.5,0.1
	c-0.2,0-0.3,0-0.5-0.1l-11.2-6c-0.4-0.2-0.6-0.6-0.6-1C3,10,3.3,9.6,3.6,9.4l11.2-5c0.3-0.1,0.6-0.1,0.9,0L26.9,9.4z M26,13.9
	c0.5-0.3,1.2-0.1,1.4,0.4c0.3,0.5,0.1,1.2-0.4,1.4l-11.2,6c-0.2,0.1-0.3,0.1-0.5,0.1c-0.2,0-0.3,0-0.5-0.1l-11.2-6
	c-0.5-0.3-0.7-0.9-0.4-1.4c0.3-0.5,0.9-0.7,1.4-0.4l10.7,5.7L26,13.9z M26,18c0.5-0.3,1.2-0.1,1.4,0.4c0.3,0.5,0.1,1.2-0.4,1.4
	l-11.2,6C15.6,26,15.5,26,15.3,26c-0.2,0-0.3,0-0.5-0.1l-11.2-6C3,19.6,2.8,19,3.1,18.5C3.4,18,4,17.8,4.5,18l10.7,5.7L26,18z"/>
</svg>
