<svg xmlns="http://www.w3.org/2000/svg" viewBox="0 0 24 24"><title>file-doc-1</title><path d="M4.625,12.394v6.165c0,.251.236.2.351.17a3.375,3.375,0,0,0-.118-6.495A.179.179,0,0,0,4.625,12.394Z"/><path d="M22,0H2A1.5,1.5,0,0,0,.5,1.5v21A1.5,1.5,0,0,0,2,24H22a1.5,1.5,0,0,0,1.5-1.5V1.5A1.5,1.5,0,0,0,22,0ZM4,20.123a.625.625,0,0,1-.625-.625v-8A.625.625,0,0,1,4,10.873a4.625,4.625,0,0,1,0,9.25ZM14.625,17.5a2.625,2.625,0,0,1-5.25,0v-4a2.625,2.625,0,1,1,5.25,0ZM20,18.873a.625.625,0,0,1,0,1.25,4.625,4.625,0,1,1,0-9.25.625.625,0,0,1,0,1.25,3.375,3.375,0,1,0,0,6.75Z"/><path d="M12,12.123A1.377,1.377,0,0,0,10.625,13.5v4a1.375,1.375,0,0,0,2.75,0v-4A1.377,1.377,0,0,0,12,12.123Z"/></svg>