<svg xmlns="http://www.w3.org/2000/svg" xmlns:xlink="http://www.w3.org/1999/xlink" width="30" height="30" viewBox="0 0 30 30">
    <defs>
        <path id="a" d="M21.816 8.935a1.469 1.469 0 0 0-1.374-.959H14.5L12.372 1.95a1.465 1.465 0 0 0-2.751.018L7.5 7.976H1.558a1.466 1.466 0 0 0-.941 2.589l5.031 4.169-2.111 6.334a1.465 1.465 0 0 0 2.255 1.648L11 18.9l5.207 3.818a1.465 1.465 0 0 0 2.256-1.644l-2.112-6.338 5.042-4.179a1.47 1.47 0 0 0 .423-1.622zm-7.267 4.7a1 1 0 0 0-.311 1.086l1.549 4.647a.25.25 0 0 1-.385.281l-3.812-2.798a1 1 0 0 0-1.183 0L6.6 19.644a.25.25 0 0 1-.385-.28l1.548-4.647a1 1 0 0 0-.31-1.086l-3.878-3.212a.25.25 0 0 1 .159-.443h4.475a1 1 0 0 0 .943-.668l1.612-4.568a.25.25 0 0 1 .472 0l1.611 4.568a1 1 0 0 0 .943.668h4.475a.25.25 0 0 1 .159.443l-3.875 3.216z"/>
    </defs>
    <g fill="none" fill-rule="evenodd" transform="translate(4 3)">
        <mask id="b" fill="#fff">
            <use xlink:href="#a"/>
        </mask>
        <g fill="#009f4d" mask="url(#b)">
            <path d="M-110-110h250v250h-250z"/>
        </g>
    </g>
</svg>
