<?xml version="1.0" encoding="UTF-8"?>
<svg width="25px" height="39px" viewBox="0 0 25 39" version="1.1" xmlns="http://www.w3.org/2000/svg" xmlns:xlink="http://www.w3.org/1999/xlink">
    <!-- Generator: Sketch 52.4 (67378) - http://www.bohemiancoding.com/sketch -->
    <title>Elements/Icons/Keurmerk</title>
    <desc>Created with Sketch.</desc>
    <defs>
        <polygon id="path-1" points="0.0045 0.073575 24 0.073575 24 38.475 0.0045 38.475"></polygon>
        <path d="M19.166,11.6655333 C19.3863667,11.7627 19.5312,11.9790333 19.5396333,12.2195667 C19.5484333,12.4604667 19.4193667,12.6837667 19.2059667,12.7981667 L12.467,16.3918667 C12.3738667,16.4406333 12.2723,16.4648333 12.1692667,16.4648333 C12.0673333,16.4648333 11.9657667,16.4406333 11.8726333,16.3918667 L5.13366667,12.7981667 C4.92173333,12.6837667 4.79266667,12.4604667 4.80146667,12.2195667 C4.80843333,11.9790333 4.95473333,11.7627 5.174,11.6655333 L11.9126,8.65886667 C12.0776,8.5859 12.2635,8.5859 12.4270333,8.65886667 L19.166,11.6655333 Z M18.6116,14.3539333 C18.9196,14.1889333 19.3020333,14.3066333 19.4652,14.6131667 C19.6298333,14.9211667 19.5125,15.3036 19.2059667,15.4667667 L12.467,19.0619333 C12.3738667,19.1118 12.2723,19.1363667 12.1692667,19.1363667 C12.0673333,19.1363667 11.9657667,19.1118 11.8726333,19.0619333 L5.13366667,15.4667667 C4.82713333,15.3036 4.7098,14.9211667 4.87443333,14.6131667 C5.0376,14.3066333 5.42003333,14.1889333 5.72803333,14.3539333 L12.1692667,17.7899667 L18.6116,14.3539333 Z M18.6116,16.8186667 C18.9196,16.6540333 19.3020333,16.7713667 19.4652,17.0779 C19.6298333,17.3859 19.5125,17.7683333 19.2059667,17.9315 L12.467,21.5252 C12.3738667,21.5754333 12.2723,21.5996333 12.1692667,21.5996333 C12.0673333,21.5996333 11.9657667,21.5754333 11.8726333,21.5252 L5.13366667,17.9315 C4.82713333,17.7683333 4.7098,17.3859 4.87443333,17.0779 C5.0376,16.7713667 5.42003333,16.6540333 5.72803333,16.8186667 L12.1692667,20.2547 L18.6116,16.8186667 Z" id="path-3"></path>
    </defs>
    <g id="Elements/Icons/Keurmerk" stroke="none" stroke-width="1" fill="none" fill-rule="evenodd">
        <g id="bookmark">
            <mask id="mask-2" fill="white">
                <use xlink:href="#path-1"></use>
            </mask>
            <g id="Clip-2"></g>
            <path d="M20.000025,0.073575 L3.999975,0.073575 C1.79085,0.073575 4.65868121e-21,1.864425 4.65868121e-21,4.07355 L4.65868121e-21,37.67355 C-0.000825,38.115375 0.356775,38.47425 0.7986,38.475 C1.0116,38.475375 1.215975,38.390775 1.366425,38.23995 L12,27.6048 L22.633575,38.238375 C22.94565,38.5512 23.452125,38.5518 23.76495,38.2398 C23.9154,38.0898 23.999925,37.886025 24,37.67355 L24,4.07355 C24,1.864425 22.20915,0.073575 20.000025,0.073575" id="Fill-1" fill="#0077C8" mask="url(#mask-2)"></path>
            <mask id="mask-4" fill="white">
                <use xlink:href="#path-3"></use>
            </mask>
            <use id="Mask" fill="#FFFFFF" xlink:href="#path-3"></use>
        </g>
    </g>
</svg>