<?xml version="1.0" encoding="UTF-8"?>
<svg width="17px" height="20px" viewBox="0 0 17 20" version="1.1" xmlns="http://www.w3.org/2000/svg" xmlns:xlink="http://www.w3.org/1999/xlink">
    <!-- Generator: sketchtool 52.4 (67378) - http://www.bohemiancoding.com/sketch -->
    <title>247A04B6-F1C9-4083-B7AB-F57DE8989215</title>
    <desc>Created with sketchtool.</desc>
    <g id="Symbols" stroke="none" stroke-width="1" fill="none" fill-rule="evenodd">
        <g id="Components/Navigation/Header-Navigation" transform="translate(-1388.000000, -30.000000)" fill-rule="nonzero">
            <g id="Language" transform="translate(1388.000000, 30.000000)">
                <path d="M16.9993994,11.1665865 L16.9988739,8.10007072 L16.9986863,7.07788624 L16.998386,5.47913311 C16.9983484,5.04236035 16.7838694,4.63663244 16.4300953,4.38989176 C16.3996163,4.36863075 16.3684616,4.34812233 16.3359181,4.32926965 L15.4459088,3.81433913 L14.612691,3.33229734 L13.9419278,2.94421795 L10.3760725,0.881109193 L9.62554592,0.44689528 L9.16047843,0.177802318 C8.7506635,-0.0593426756 8.24573307,-0.0592674154 7.83595568,0.178028098 L7.37400365,0.445502966 L6.62355212,0.88005555 L3.05818477,2.94455662 L1.93410274,3.59540712 L1.10114771,4.07774995 L0.662092462,4.33197901 C0.630524926,4.35026725 0.600233605,4.37017358 0.570542855,4.39071963 C0.215267321,4.63742267 -3.75357141e-05,5.0441666 0,5.48203063 L0.000262749999,7.07792387 L0.00045042857,8.10010835 L0.000975928567,11.1666242 L0.00116360714,12.1888086 L0.00142635714,13.7875241 C0.00153896428,14.2242969 0.215942963,14.6300248 0.569717069,14.8767655 C0.600196069,14.8980265 0.631350712,14.9185349 0.663894176,14.9373876 L1.54136656,15.4450555 L2.37458435,15.9271349 L3.05788449,16.3224769 L6.62373979,18.3855857 L7.3742664,18.8197996 L7.8393339,19.0888926 C8.24914882,19.3260376 8.75407925,19.325887 9.16385664,19.0886668 L9.62580867,18.8211919 L10.3763353,18.3866393 L13.9418152,16.3221383 L14.9674786,15.7282598 L15.8004336,15.2459169 L16.3379075,14.9347159 C16.3694751,14.9164276 16.3997664,14.8965966 16.4294571,14.8759376 C16.7847327,14.6292346 17.0000375,14.2224907 17,13.7846266 L16.9996997,12.1887334 L16.9993994,11.1665865 Z" id="Shape" fill="#F5F5F5"></path>
                <g id="Group" transform="translate(0.000000, 1.243011)" fill="#41479B">
                    <polygon id="Shape" points="10.371685 17.3877359 13.9285419 15.3389501 10.371685 12.1816174"></polygon>
                    <polygon id="Shape" points="13.9289163 2.06290171 10.371685 0.0154976233 10.371685 5.22057047"></polygon>
                    <polygon id="Shape" points="3.07104626 15.3392488 6.62824009 17.3866529 6.62824009 12.1816174"></polygon>
                    <path d="M16.4102048,13.9037581 C16.7646211,13.658933 16.9794053,13.2552853 16.9793678,12.8207543 L16.9790683,11.2370093 L13.4060352,11.2370093 L16.4102048,13.9037581 Z" id="Shape"></path>
                    <path d="M0.0217180617,11.2370839 L0.0219801762,12.8236298 C0.022092511,13.2570778 0.235977974,13.6597172 0.588896476,13.9045797 L3.59392731,11.2370466 L0.0217180617,11.2370466 L0.0217180617,11.2370839 Z" id="Shape"></path>
                    <path d="M0.589795154,3.49835507 C0.235378855,3.74318017 0.0205947137,4.14682791 0.0206321586,4.58135886 L0.0208942731,6.16510394 L3.59392731,6.16510394 L0.589795154,3.49835507 Z" id="Shape"></path>
                    <path d="M16.978207,6.16510394 L16.9779075,4.57852074 C16.97787,4.14507276 16.7639097,3.7424333 16.4109912,3.49757085 L13.4059604,6.16510394 L16.978207,6.16510394 Z" id="Shape"></path>
                    <polygon id="Shape" points="6.62824009 0.0144520006 3.07138326 2.06323781 6.62824009 5.22057047"></polygon>
                </g>
                <g id="Group" fill="#FF4B55">
                    <path d="M9.62301101,0.446858724 L9.15903084,0.177802734 C8.75020705,-0.0593428387 8.2464978,-0.0592675783 7.83771145,0.178028515 L7.37687665,0.445504036 L7.37687665,8.10009049 L0.0210440529,8.10009049 L0.0215682819,11.1666138 L7.3769141,11.1666138 L7.3769141,18.8198079 L7.84085683,19.0889016 C8.24968062,19.3260471 8.75338987,19.3258966 9.16217621,19.0886758 L9.62301101,18.8212003 L9.62301101,11.1666138 L16.9788811,11.1666138 L16.9783568,8.10009049 L9.62301101,8.10009049 L9.62301101,0.446858724 Z" id="Shape"></path>
                    <polygon id="Shape" points="5.23248018 12.1888008 1.55815859 15.4450556 2.38936123 15.9271362 6.60764537 12.1888008"></polygon>
                    <polygon id="Shape" points="10.957848 12.1888008 14.9517247 15.7282605 15.7827026 15.2459542 12.3329758 12.1888008"></polygon>
                    <polygon id="Shape" points="5.87952863 7.07790352 1.95001982 3.59541589 1.11904185 4.0777599 4.50436344 7.07790352"></polygon>
                    <polygon id="Shape" points="10.371685 7.07790352 11.7468502 7.07790352 15.4292599 3.8144237 14.5980573 3.33230547"></polygon>
                </g>
            </g>
        </g>
    </g>
</svg>