<?xml version="1.0" encoding="utf-8"?>
<!-- Generator: Adobe Illustrator 21.1.0, SVG Export Plug-In . SVG Version: 6.00 Build 0)  -->
<svg version="1.1" id="layer" xmlns="http://www.w3.org/2000/svg" xmlns:xlink="http://www.w3.org/1999/xlink" x="0px" y="0px"
	 viewBox="0 0 30 30" style="enable-background:new 0 0 30 30;" xml:space="preserve">
<style type="text/css">
	.st0{fill:#fff;}
</style>
<path id="a_1_" class="st0" d="M20.7,17.4c-0.9,0-1.7,0.4-2.4,1L11.5,15c0-0.2,0-0.3,0-0.5c0-0.2,0-0.3,0-0.5l6.9-3.4
	c0.6,0.7,1.5,1,2.4,1c1.8,0,3.3-1.5,3.3-3.3C24,6.5,22.5,5,20.7,5c-1.8,0-3.3,1.5-3.3,3.3c0,0.2,0,0.3,0,0.5l-6.9,3.4
	c-0.6-0.7-1.5-1-2.4-1c-1.8,0-3.3,1.5-3.3,3.3c0,1.8,1.5,3.3,3.3,3.3c0.9,0,1.7-0.4,2.4-1l6.9,3.4c0,0.2,0,0.3,0,0.5
	c0,1.8,1.5,3.3,3.3,3.3c1.8,0,3.3-1.5,3.3-3.3C24,18.9,22.5,17.4,20.7,17.4z"/>
</svg>
