<svg xmlns="http://www.w3.org/2000/svg" xmlns:xlink="http://www.w3.org/1999/xlink" width="18" height="20" viewBox="0 0 18 20">
    <defs>
        <path id="a" d="M0 0h17.037v20H0z"/>
    </defs>
    <g fill="none" fill-rule="evenodd">
        <mask id="b" fill="#fff">
            <use xlink:href="#a"/>
        </mask>
        <path fill="#F8F7F5" d="M17.037 13.352l-.001-7.664c0-.493-.253-.948-.664-1.194L9.18.184a1.285 1.285 0 0 0-1.328 0L.663 4.498C.254 4.743 0 5.198 0 5.69l.001 8.621c0 .493.254.948.664 1.194l7.191 4.31c.411.246.917.246 1.328 0l7.19-4.313c.41-.246.663-.701.663-1.194v-.957" mask="url(#b)"/>
        <path fill="#394084" d="M0 14.296c0 .494.253.95.664 1.197l7.192 4.322c.41.247.916.247 1.327 0l7.19-4.324c.411-.247.664-.704.664-1.198v-.96H0v.963" mask="url(#b)"/>
        <path fill="#DE4A53" d="M17.037 5.704c0-.494-.253-.95-.664-1.197L9.18.185a1.282 1.282 0 0 0-1.327 0L.664 4.51C.253 4.756 0 5.213 0 5.707v.96h17.037v-.963" mask="url(#b)"/>
    </g>
</svg>
