<svg xmlns="http://www.w3.org/2000/svg" viewBox="0 0 24 24"><title>presentation-statistics</title><path d="M11.5,2h10.25a.249.249,0,0,1,.25.25V12.5a.25.25,0,0,1-.25.25H13.5a1,1,0,0,0,0,2H22a2,2,0,0,0,2-2V2a2,2,0,0,0-2-2H11.5a1,1,0,0,0,0,2Z"/><rect x="17.997" y="4" width="2.5" height="7.5" rx="0.75" ry="0.75"/><circle cx="5.503" cy="4" r="4"/><rect x="13.997" y="6.5" width="2.5" height="5" rx="0.75" ry="0.75"/><path d="M8.239,18.349a4.315,4.315,0,0,1,2.48-3.908A.5.5,0,0,0,11,13.99,5.5,5.5,0,0,0,0,14v3.5a.5.5,0,0,0,.5.5h2.04l.462,5.541A.5.5,0,0,0,3.5,24h4a.5.5,0,0,0,.5-.459l.345-4.14a.477.477,0,0,0-.009-.146A4.382,4.382,0,0,1,8.239,18.349Z"/><path d="M23.513,24a.485.485,0,0,0,.377-.789,4.979,4.979,0,0,0-2.443-1.645.251.251,0,0,1-.058-.453,2.759,2.759,0,1,0-2.865.016.25.25,0,0,1-.054.453,4.954,4.954,0,0,0-1.926,1.131.251.251,0,0,1-.344,0,4.964,4.964,0,0,0-1.951-1.139.25.25,0,0,1-.055-.453,2.76,2.76,0,1,0-2.865,0,.251.251,0,0,1-.056.453,4.977,4.977,0,0,0-2.419,1.637A.485.485,0,0,0,9.231,24Z"/></svg>