<svg version="1.1" xmlns="http://www.w3.org/2000/svg" x="0px" y="0px"
	 viewBox="0 0 30 30" style="enable-background:new 0 0 30 30;" xml:space="preserve">
<path fill="#ffffff" d="M24,10.6c-0.6,0.3-1.3,0.5-2,0.5c0.7-0.4,1.3-1.1,1.5-1.9c-0.7,0.4-1.4,0.7-2.2,0.8
	C20.7,9.4,19.8,9,18.8,9c-1.9,0-3.5,1.5-3.5,3.4c0,0.3,0,0.5,0.1,0.8c-2.9-0.1-5.5-1.5-7.2-3.6c-0.3,0.5-0.5,1.1-0.5,1.7
	c0,1.2,0.6,2.2,1.6,2.9c-0.6,0-1.1-0.2-1.6-0.4v0c0,1.7,1.2,3.1,2.8,3.4c-0.3,0.1-0.6,0.1-0.9,0.1c-0.2,0-0.4,0-0.7-0.1
	c0.4,1.4,1.7,2.4,3.3,2.4c-1.2,0.9-2.7,1.5-4.3,1.5c-0.3,0-0.6,0-0.8,0c1.5,1,3.4,1.5,5.3,1.5c6.4,0,9.9-5.2,9.9-9.8l0-0.4
	C22.9,11.9,23.5,11.3,24,10.6z"/>
</svg>
